<svg width="150" height="100" viewBox="0 0 106 73" fill="none" xmlns="http://www.w3.org/2000/svg">
<path d="M105.677 46.9219L105.661 46.2396L105.656 46.0573L105.646 45.9792L105.635 45.8281L105.604 45.5208C105.563 45.1094 105.531 44.7083 105.484 44.2865C105.328 43.349 105.198 42.3802 104.953 41.5208L104.792 40.8646C104.766 40.7552 104.74 40.6458 104.708 40.5365L104.604 40.2135C104.469 39.7812 104.318 39.3594 104.172 38.9323C103.521 37.25 102.734 35.6406 101.75 34.1615C101.51 33.7865 101.24 33.4375 100.984 33.0729C100.854 32.8958 100.734 32.7135 100.589 32.5469L100.167 32.0417L99.7344 31.5417L99.526 31.2917L99.2969 31.0573C98.9896 30.7448 98.6875 30.4271 98.375 30.125C98.0573 29.8281 97.724 29.5469 97.3958 29.2656C97.0781 28.974 96.7292 28.7135 96.3854 28.4583C95.7031 27.9271 94.9688 27.4844 94.2448 27.0312C92.7604 26.1979 91.1979 25.526 89.6042 25.0677C90.9583 26.0417 92.2188 27.0729 93.3646 28.1927C93.6354 28.4896 93.9167 28.776 94.1875 29.0625C94.4688 29.3437 94.7083 29.6667 94.9635 29.9635L95.3438 30.4167C95.474 30.5625 95.5781 30.7344 95.6979 30.8906C95.9271 31.2083 96.1667 31.5156 96.3854 31.8385C97.2604 33.1302 97.9792 34.4948 98.599 35.8802L99.0156 36.9427C99.0469 37.0312 99.0833 37.1146 99.1146 37.2031L99.2031 37.474L99.375 38.0156L99.5469 38.5469C99.6042 38.7292 99.6406 38.9115 99.6875 39.0937C99.776 39.4583 99.875 39.8177 99.9479 40.1823C100.24 41.6354 100.396 43.151 100.411 44.4896L100.385 45.7135L100.38 46.0208L100.375 46.1771V46.25C100.375 46.3437 100.375 46.1458 100.375 46.1719L100.37 46.1927V46.224L100.318 46.7708C100.302 46.9531 100.297 47.1302 100.271 47.3125L100.198 47.8542C100.156 48.2135 100.083 48.5677 100.016 48.9219C99.8906 49.6354 99.7135 50.3333 99.5104 51.0208C99.4635 51.1927 99.4115 51.3646 99.349 51.5365L99.1823 52.0417C99.0677 52.3802 98.9271 52.7135 98.8021 53.0469C98.2656 54.3698 97.5885 55.625 96.8021 56.8073C96.0156 57.9844 95.1094 59.0781 94.1094 60.0781C93.1094 61.0729 92.0208 61.9792 90.8438 62.75C89.6719 63.526 88.4219 64.1823 87.1198 64.7135C85.8177 65.2396 84.4635 65.6354 83.0781 65.8906C82.7344 65.9687 82.3802 66.0052 82.0365 66.0573L81.7708 66.099L81.5313 66.1198L81.0469 66.1719C80.9583 66.1771 80.8958 66.1927 80.7917 66.1979L80.4844 66.2083L79.8698 66.2396L79.7135 66.2448L79.6771 66.25H78.8542C78.1458 66.2344 77.4375 66.2031 76.7344 66.1094L76.2031 66.0469L75.6771 65.9687C75.3229 65.9167 74.974 65.8333 74.625 65.7656C73.2292 65.4687 71.8646 65.0156 70.5417 64.4427C69.2188 63.8646 67.9531 63.1406 66.75 62.3073L65.3646 61.349L64.151 61.9375L63.4948 62.2552L62.8281 62.5573L62.1563 62.8437L61.4792 63.1146L60.7917 63.3698L60.0938 63.6094C59.6302 63.7708 59.1615 63.9167 58.6875 64.0521C58.2135 64.1875 57.7344 64.3125 57.25 64.4219C56.7708 64.5312 56.2865 64.6458 55.7969 64.7396L55.0625 64.8698L54.3229 64.9844L53.5938 65.0833L53.2031 65.1302L52.9063 65.1615L52.8542 65.1667L52.8333 65.1719H52.8125C52.8177 65.1719 52.7865 65.1719 52.8281 65.1719L52.0729 65.2396L51.3177 65.2917C50.8125 65.3177 50.3073 65.3385 49.7969 65.349C49.2865 65.3594 48.776 65.3542 48.2656 65.3385L47.4948 65.3073C47.2396 65.2969 46.9844 65.276 46.724 65.2656C46.2083 65.224 45.6979 65.1719 45.1771 65.1198L44.4063 65.026L43.6302 64.9115L42.8542 64.7812L42.0729 64.6406C41.5625 64.5365 41.0365 64.4271 40.5156 64.3073L41.1979 64.7292L41.901 65.1198C42.375 65.3802 42.8542 65.6146 43.3438 65.8437C43.8333 66.0729 44.3333 66.2812 44.8385 66.4792C45.3437 66.6823 45.8542 66.8594 46.375 67.0312C46.8906 67.1927 47.4167 67.3594 47.9479 67.4948C48.474 67.6302 49.0104 67.7552 49.5469 67.8698L50.3594 68.026L51.1771 68.1562L52 68.2656L52.8281 68.3542L53.6354 68.4219L54.4896 68.4583L55.3229 68.4792H56.1615C56.7187 68.4687 57.2813 68.4479 57.8438 68.4062C58.401 68.3646 58.9583 68.3073 59.5208 68.2396C60.0781 68.1719 60.6354 68.0885 61.1927 67.9896C61.75 67.8906 62.3021 67.7656 62.8542 67.6406L63.6771 67.4323L64.5 67.2031L64.5625 67.1823C65.6354 68.0417 66.7813 68.8229 67.9948 69.4948C69.6042 70.3854 71.3177 71.1146 73.099 71.6354C74.8802 72.1562 76.724 72.4792 78.5833 72.6042L79.6302 72.651H80.6458L80.9531 72.6458C81.0573 72.6458 81.1927 72.6354 81.3125 72.6302L82.0573 72.5885L82.4271 72.5677L82.776 72.5312C83.2396 72.474 83.7031 72.4323 84.1667 72.349C86.0156 72.0625 87.8333 71.5677 89.5833 70.8802C91.3281 70.1927 92.9948 69.3125 94.5469 68.2656C96.099 67.2135 97.5313 65.9896 98.8073 64.625C100.094 63.2656 101.219 61.7656 102.177 60.1615C103.13 58.5625 103.906 56.8594 104.474 55.0937C104.604 54.6458 104.75 54.2083 104.865 53.7604L105.031 53.0833C105.089 52.8594 105.141 52.6354 105.182 52.4062C105.365 51.5 105.5 50.5885 105.583 49.6719C105.62 49.2135 105.661 48.7552 105.667 48.2969L105.688 47.6094C105.693 47.3802 105.682 47.151 105.677 46.9219Z" fill="white"/>
<mask id="mask0_17_204" style="mask-type:luminance" maskUnits="userSpaceOnUse" x="0" y="0" width="84" height="71">
<path d="M0 0H83.3333V70.3333H0V0Z" fill="white"/>
</mask>
<g mask="url(#mask0_17_204)">
<path d="M81.0312 18.4844L80.4948 17.3802L79.9219 16.2917C79.7135 15.9375 79.5052 15.5833 79.2969 15.2292C79.0729 14.8854 78.8542 14.5365 78.625 14.1927C77.7135 12.8125 76.6667 11.5208 75.5365 10.2917C74.3958 9.07291 73.1562 7.9375 71.8281 6.89583C70.4948 5.86458 69.0781 4.92708 67.5937 4.09895C66.1042 3.28125 64.5469 2.57291 62.9375 1.98958C61.3229 1.40104 59.6615 0.95312 57.9687 0.624995C56.276 0.291662 54.5573 0.104162 52.8281 0.0416616L51.5729 0.0208282C51.1406 0.0208282 50.6823 0.0364539 50.2344 0.0468699C49.7865 0.0624952 49.3646 0.0989536 48.9271 0.124995C48.4948 0.156246 48.0625 0.213537 47.6302 0.255203C45.901 0.468745 44.1823 0.807287 42.5 1.27604C40.8125 1.74479 39.1667 2.36979 37.5729 3.09375C35.9792 3.82812 34.4375 4.67708 32.9687 5.64583C31.5052 6.61979 30.1094 7.69791 28.8125 8.88541C27.5104 10.0677 26.2969 11.3542 25.1927 12.7292C23.375 14.974 21.8437 17.4531 20.6458 20.0885C19.651 20.2969 18.6667 20.5573 17.6979 20.8802C16.1094 21.4062 14.5781 22.0937 13.125 22.9115C11.6719 23.7292 10.3073 24.6979 9.04166 25.7708C7.77604 26.849 6.61979 28.0521 5.58854 29.349C4.55729 30.6458 3.64062 32.0312 2.8802 33.5C2.11979 34.9687 1.5052 36.5052 1.04166 38.0885C0.807289 38.875 0.609371 39.6719 0.45833 40.4792C0.385412 40.8854 0.307289 41.2865 0.260413 41.6927C0.20833 42.099 0.145829 42.5052 0.119788 42.9115C0.0885375 43.3229 0.0468711 43.7292 0.0416631 44.1354C0.0260378 44.5417 0.00520414 44.9479 0.0156215 45.3542L0.0208298 45.9687L0.0260381 46.1198V46.2552L0.0312465 46.3281L0.0520798 46.599L0.0833298 47.1458L0.104163 47.4219L0.135413 47.7396L0.20833 48.375C0.234371 48.5833 0.255204 48.8021 0.291663 48.9948C0.359371 49.3958 0.421871 49.7969 0.499996 50.1927L0.765622 51.375L1.08854 52.5417C1.55208 54.0885 2.18229 55.5781 2.93229 56.9844C3.6875 58.3958 4.57291 59.7292 5.57812 60.9479C6.58854 62.1667 7.6927 63.2969 8.90625 64.2865C10.1198 65.276 11.4062 66.1562 12.776 66.8854C14.1354 67.6146 15.5625 68.2083 17.0208 68.6458C18.4792 69.0885 19.974 69.375 21.4687 69.5104C22.9635 69.6458 24.4583 69.6302 25.9219 69.4479C24.4583 69.2656 23.026 68.974 21.651 68.5625C20.2656 68.1562 18.9427 67.6198 17.6771 66.9844C16.4219 66.3437 15.2292 65.6042 14.1198 64.7656C13.0208 63.9219 11.9896 63 11.0677 61.9844C10.1458 60.974 9.3125 59.901 8.59375 58.7552C7.88021 57.6094 7.26562 56.4115 6.77083 55.1771C6.27604 53.9427 5.90625 52.6667 5.64062 51.375L5.46875 50.4062L5.34375 49.4323C5.3125 49.1042 5.29166 48.776 5.26562 48.4531C5.25 48.2865 5.2552 48.1354 5.25 47.9844L5.23958 47.5208L5.22916 47.2917L5.23437 47.0156L5.23958 46.4687L5.24479 46.1927V46.1094C5.24479 46.0417 5.24479 46.1771 5.24479 46.1562L5.25 46.125L5.2552 46.0052L5.29166 45.5208C5.30208 45.1927 5.34896 44.8698 5.38541 44.5469C5.41146 44.224 5.47396 43.9062 5.52604 43.5885C5.5677 43.2656 5.64583 42.9531 5.70833 42.6354C5.76562 42.3177 5.85937 42.0104 5.9375 41.6979C6.09375 41.0781 6.28646 40.4635 6.5052 39.8594C6.9427 38.6562 7.48958 37.4948 8.14583 36.401C8.79166 35.3021 9.53645 34.2656 10.3698 33.3073C11.2031 32.349 12.1302 31.4792 13.1146 30.6875C14.1042 29.901 15.1615 29.2135 16.2708 28.6146C17.3802 28.0208 18.5417 27.5365 19.7396 27.1562C20.9323 26.776 22.1667 26.5156 23.4115 26.3542L25.3646 26.1146L26.0885 24.2708C26.6146 22.9427 27.2396 21.651 27.9531 20.4062C28.6667 19.1667 29.474 17.974 30.3594 16.849C31.2448 15.724 32.2135 14.6562 33.25 13.6615C34.2969 12.6771 35.401 11.7552 36.5781 10.9219C37.75 10.0885 38.9792 9.32812 40.2656 8.67708C41.5521 8.01562 42.8906 7.46354 44.2552 6.98437C45.6302 6.51562 47.0365 6.14062 48.4687 5.8802C48.8281 5.82291 49.1875 5.74999 49.5469 5.70312C49.9062 5.65625 50.276 5.59374 50.6302 5.55729L51.6823 5.44791L52.8281 5.3802C54.2969 5.32291 55.7656 5.37499 57.2396 5.51562C58.7083 5.65625 60.1667 5.91666 61.6146 6.27604C63.0573 6.6302 64.4844 7.09895 65.8698 7.67187C67.2656 8.23437 68.6198 8.90104 69.9271 9.67187C71.2396 10.4375 72.5052 11.3021 73.7031 12.2604C74.9167 13.2083 76.0521 14.2604 77.1302 15.3854C77.3958 15.6667 77.6562 15.9583 77.9219 16.2448L78.6823 17.1354L79.4219 18.0573L80.125 19.0052C81.0573 20.2917 81.8854 21.6406 82.6562 23.0625C82.2604 21.5052 81.6979 19.9687 81.0312 18.4844Z" fill="#24AEE6"/>
</g>
<mask id="mask1_17_204" style="mask-type:luminance" maskUnits="userSpaceOnUse" x="23" y="28" width="61" height="37">
<path d="M23.0677 28.6458H83.0677V64.6458H23.0677V28.6458Z" fill="white"/>
</mask>
<g mask="url(#mask1_17_204)">
<path d="M80.6823 33.1875C80.1719 33.1875 79.6875 33.3906 79.3125 33.7552C78.9479 34.1198 78.7448 34.6042 78.7448 35.125V45.526H77.4583C77.6406 45.2292 77.7552 44.8802 77.7552 44.5104C77.7552 43.9844 77.5469 43.4896 77.1771 43.1146C77.0573 43 76.9271 42.9063 76.7864 42.8229C77.375 42.3125 77.7552 41.5625 77.7552 40.7292V40.5938C77.7552 39.0729 76.5156 37.8333 74.9896 37.8333H59.0573C57.5312 37.8333 56.2916 39.0729 56.2916 40.5938V40.7292C56.2916 41.4219 56.5521 42.0573 56.9791 42.5417H36.5052C37.625 41.8646 38.0573 40.4323 37.4583 39.25L34.4166 33.2344C33.7448 31.8906 32.1041 31.3438 30.7552 32.0104L29.8021 32.4844L28.5573 30.0156C28.2864 29.4792 27.8281 29.0781 27.2604 28.8906C26.6875 28.7031 26.0833 28.75 25.5469 29.0208C24.7864 29.4063 24.3125 30.1771 24.3125 31.026C24.3125 31.3698 24.3906 31.7083 24.5521 32.026L25.1406 33.1979C25.0937 33.1979 25.0469 33.1875 25 33.1875C24.4948 33.1875 24.0104 33.3906 23.6354 33.7552C23.2708 34.1198 23.0677 34.6042 23.0677 35.125V46.6615C23.0677 48.1719 24.2969 49.3958 25.8021 49.3958H30.0208V50.526H29.2135C27.5104 50.526 26.125 51.9063 26.125 53.6042V58.4427C25.0312 59.0625 24.3333 60.224 24.3333 61.5C24.3333 63.4375 25.9166 65.0208 27.8541 65.0208C29.7969 65.0208 31.375 63.4375 31.375 61.5C31.375 60.224 30.6823 59.0625 29.5885 58.4427V57.4375H75.6614V58.4427C74.5625 59.0573 73.8646 60.2188 73.8646 61.5C73.8646 63.4375 75.4479 65.0208 77.3906 65.0208C79.3281 65.0208 80.9114 63.4375 80.9114 61.5C80.9114 60.224 80.2083 59.0573 79.1198 58.4427V53.6042C79.1198 51.9063 77.7344 50.526 76.0312 50.526H75.2239V49.3958H79.8854C81.3906 49.3958 82.6146 48.1667 82.6146 46.6615V35.1198C82.6146 34.0573 81.75 33.1875 80.6823 33.1875ZM26.9375 45.526V36.776L31.3437 45.526H26.9375ZM57.2396 40.7292V40.5938C57.2396 39.5938 58.0521 38.7813 59.0573 38.7813H74.9896C75.8489 38.7813 76.5729 39.3854 76.7604 40.1875H59.5573C59.2969 40.1875 59.0833 40.401 59.0833 40.6615C59.0833 40.9219 59.2969 41.1354 59.5573 41.1354H76.7604C76.5729 41.9375 75.8541 42.5417 74.9896 42.5417H59.0573C58.0521 42.5417 57.2396 41.7292 57.2396 40.7292ZM25.9687 29.8646C26.2812 29.7083 26.6354 29.6823 26.9635 29.7917C27.2916 29.901 27.5573 30.1302 27.7135 30.4375L34.151 43.2292C34.2291 43.3854 34.3958 43.4896 34.5729 43.4896H75.7864C76.0625 43.4896 76.3177 43.5938 76.5052 43.7865C76.7031 43.9792 76.8073 44.2292 76.8073 44.5104C76.8073 45.0677 76.3489 45.526 75.7864 45.526H32.401L25.3958 31.6042C25.3021 31.4167 25.2552 31.224 25.2552 31.026C25.2552 30.5313 25.5312 30.0885 25.9687 29.8646ZM28.6406 61.5C28.6406 61.9323 28.2864 62.2813 27.8541 62.2813C27.4219 62.2813 27.0729 61.9323 27.0729 61.5C27.0729 61.0677 27.4219 60.7135 27.8541 60.7135C28.2864 60.7135 28.6406 61.0677 28.6406 61.5ZM78.1719 61.5C78.1719 61.9323 77.8229 62.2813 77.3906 62.2813C76.9583 62.2813 76.6041 61.9323 76.6041 61.5C76.6041 61.0677 76.9583 60.7135 77.3906 60.7135C77.8229 60.7135 78.1719 61.0677 78.1719 61.5ZM78.1719 53.6042V58.0677C77.6614 57.9531 77.1198 57.9531 76.6041 58.0677V56.9635C76.6041 56.7031 76.3958 56.4948 76.1302 56.4948H29.1146C28.8541 56.4948 28.6406 56.7031 28.6406 56.9635V58.0677C28.125 57.9531 27.5833 57.9531 27.0729 58.0677V53.6042C27.0729 52.4271 28.0312 51.4688 29.2135 51.4688H76.0312C77.2135 51.4688 78.1719 52.4271 78.1719 53.6042ZM74.2812 50.526H30.9687V49.3958H74.2812V50.526Z" fill="white"/>
</g>
<mask id="mask2_17_204" style="mask-type:luminance" maskUnits="userSpaceOnUse" x="42" y="8" width="22" height="29">
<path d="M42 8.125H63.3333V36.125H42V8.125Z" fill="white"/>
</mask>
<g mask="url(#mask2_17_204)">
<path fill-rule="evenodd" clip-rule="evenodd" d="M49.3958 11.1406C49.5313 11.1406 49.6615 11.1406 49.7969 11.151C49.5469 10.8281 49.3958 10.4271 49.3958 9.98958C49.3958 8.96354 50.2292 8.125 51.2604 8.125C52.2917 8.125 53.1302 8.96354 53.1302 9.98958C53.1302 10.7083 52.724 11.3333 52.1302 11.6458C54.6198 12.6042 56.4844 14.8281 56.9219 17.5313C55.4948 14.6094 52.4896 12.5938 49.0156 12.5938C46.4427 12.5938 44.125 13.6979 42.5156 15.4583C43.75 12.9063 46.3698 11.1406 49.3958 11.1406ZM56.2865 33.3125C56.151 33.3125 56.0156 33.3125 55.8802 33.3021C56.1354 33.6198 56.2865 34.0208 56.2865 34.4583C56.2865 35.4896 55.4479 36.3229 54.4167 36.3229C53.3906 36.3229 52.5521 35.4896 52.5521 34.4583C52.5521 33.7448 52.9531 33.1198 53.5469 32.8073C51.0573 31.849 49.1979 29.625 48.7552 26.9219C50.1875 29.849 53.1875 31.8594 56.6615 31.8594C59.2344 31.8594 61.5521 30.7552 63.1615 28.9948C61.9323 31.5521 59.3177 33.3125 56.2865 33.3125Z" fill="white"/>
</g>
<path fill-rule="evenodd" clip-rule="evenodd" d="M60.7188 13.6979C60.7865 13.8177 60.849 13.9323 60.9115 14.0521C61.0625 13.6771 61.3333 13.3437 61.7136 13.125C62.6042 12.6094 63.7448 12.9167 64.2604 13.8073C64.7761 14.6979 64.4688 15.8437 63.5781 16.3594C62.9583 16.7187 62.2188 16.6771 61.6511 16.3229C62.0677 18.9583 61.0677 21.6771 58.9531 23.4167C60.7656 20.7135 61.0104 17.1042 59.2761 14.099C57.9844 11.8646 55.8698 10.4167 53.5365 9.90103C56.3698 9.6927 59.2031 11.0781 60.7188 13.6979ZM44.9583 30.75C44.8906 30.6354 44.8281 30.5208 44.7656 30.401C44.6198 30.7812 44.349 31.1094 43.9688 31.3281C43.0729 31.8385 41.9323 31.5365 41.4167 30.6458C40.9011 29.75 41.2083 28.6094 42.099 28.0937C42.7188 27.7344 43.4636 27.776 44.0313 28.1302C43.6146 25.4948 44.6094 22.7708 46.724 21.0365C44.9115 23.7396 44.6719 27.3437 46.4115 30.3542C47.6927 32.5833 49.8125 34.0365 52.1406 34.5469C49.3125 34.7604 46.474 33.375 44.9583 30.75Z" fill="#6ED0EB"/>
<mask id="mask3_17_204" style="mask-type:luminance" maskUnits="userSpaceOnUse" x="39" y="14" width="28" height="15">
<path d="M39.3333 14.3333H66.3229V29H39.3333V14.3333Z" fill="white"/>
</mask>
<g mask="url(#mask3_17_204)">
<path fill-rule="evenodd" clip-rule="evenodd" d="M64.1615 24.7865C64.099 24.901 64.026 25.0156 63.9531 25.125C64.3542 25.0729 64.776 25.1406 65.1615 25.3594C66.0469 25.875 66.3542 27.0156 65.8386 27.9062C65.3281 28.8021 64.1823 29.1094 63.2865 28.5937C62.6719 28.2344 62.3281 27.5729 62.3594 26.901C60.2813 28.5833 57.4271 29.0833 54.8698 28.1146C58.1094 28.3385 61.3594 26.7396 63.0938 23.7292C64.3802 21.5 64.5833 18.9427 63.8594 16.6667C65.4583 19.0156 65.6823 22.1615 64.1615 24.7865ZM41.5156 19.6667C41.5781 19.5469 41.6563 19.4375 41.724 19.3229C41.3229 19.3802 40.901 19.3125 40.526 19.0937C39.6302 18.5781 39.3229 17.4375 39.8385 16.5417C40.3542 15.651 41.4948 15.349 42.3906 15.8594C43.0104 16.2187 43.349 16.875 43.3177 17.5469C45.3958 15.875 48.25 15.3698 50.8177 16.3385C47.5677 16.1198 44.3229 17.7083 42.5833 20.7187C41.2969 22.9479 41.0938 25.5104 41.8177 27.7812C40.224 25.4375 40.0052 22.2865 41.5156 19.6667Z" fill="#24AEE6"/>
</g>
<path fill-rule="evenodd" clip-rule="evenodd" d="M57.0625 23.8125V20.6354H54.4271V18.0052H51.2552V20.6354H48.6146V23.8125H51.2552V26.4531H54.4271V23.8125H57.0625Z" fill="white"/>
</svg>
