<svg xmlns="http://www.w3.org/2000/svg" width="24" height="24" viewBox="0 0 24 24" fill="none">
<path d="M7.95342 21.1394C4.89585 21.1304 2.2547 19.4579 0.987289 16.2894C-0.280125 13.1209 0.108917 9.16309 1.74362 5.61499C4.80119 5.62404 7.44234 7.29643 8.70975 10.465C9.97717 13.6335 9.58813 17.5913 7.95342 21.1394Z" fill="white"/>
<path d="M7.95342 21.1394C4.89585 21.1304 2.2547 19.4579 0.987289 16.2894C-0.280125 13.1209 0.108917 9.16309 1.74362 5.61499C4.80119 5.62404 7.44234 7.29643 8.70975 10.465C9.97717 13.6335 9.58813 17.5913 7.95342 21.1394Z" fill="url(#paint0_radial_15_19)"/>
<g style="mix-blend-mode:hard-light">
<path d="M7.95342 21.1394C4.89585 21.1304 2.2547 19.4579 0.987289 16.2894C-0.280125 13.1209 0.108917 9.16309 1.74362 5.61499C4.80119 5.62404 7.44234 7.29643 8.70975 10.465C9.97717 13.6335 9.58813 17.5913 7.95342 21.1394Z" fill="black" fill-opacity="0.5"/>
</g>
<path style="mix-blend-mode:hard-light" d="M7.95342 21.1394C4.89585 21.1304 2.2547 19.4579 0.987289 16.2894C-0.280125 13.1209 0.108917 9.16309 1.74362 5.61499C4.80119 5.62404 7.44234 7.29643 8.70975 10.465C9.97717 13.6335 9.58813 17.5913 7.95342 21.1394Z" fill="url(#paint1_linear_15_19)" fill-opacity="0.5"/>
<path d="M7.9354 21.1112C4.89702 21.0957 2.27411 19.4306 1.01347 16.279C-0.248373 13.1244 0.135614 9.18222 1.76165 5.64331C4.80004 5.65886 7.42295 7.32389 8.68359 10.4755C9.94543 13.63 9.56144 17.5723 7.9354 21.1112Z" stroke="url(#paint2_linear_15_19)" stroke-opacity="0.05" stroke-width="0.056338"/>
<path d="M7.31038 21.2574C11.3543 20.2215 14.8836 17.3754 16.6285 13.2361C18.3735 9.09674 17.9448 4.58752 15.8598 0.976318C11.8159 2.01217 8.2866 4.85829 6.54167 8.99765C4.79674 13.137 5.2254 17.6462 7.31038 21.2574Z" fill="white"/>
<path d="M7.31038 21.2574C11.3543 20.2215 14.8836 17.3754 16.6285 13.2361C18.3735 9.09674 17.9448 4.58752 15.8598 0.976318C11.8159 2.01217 8.2866 4.85829 6.54167 8.99765C4.79674 13.137 5.2254 17.6462 7.31038 21.2574Z" fill="url(#paint3_radial_15_19)"/>
<path d="M16.6025 13.2251C14.8642 17.349 11.3512 20.1866 7.32412 21.2248C5.25258 17.624 4.82927 13.1324 6.56765 9.00857C8.30604 4.88474 11.819 2.04708 15.8461 1.00891C17.9176 4.60969 18.3409 9.10133 16.6025 13.2251Z" stroke="url(#paint4_linear_15_19)" stroke-opacity="0.05" stroke-width="0.056338"/>
<path d="M7.23367 21.2069C9.78905 23.2373 13.2102 23.9506 16.5772 22.8141C19.9441 21.6775 22.5058 18.9445 23.7304 15.6382C21.175 13.6078 17.7538 12.8944 14.3869 14.031C11.0199 15.1676 8.45821 17.9006 7.23367 21.2069Z" fill="white"/>
<path d="M7.23367 21.2069C9.78905 23.2373 13.2102 23.9506 16.5772 22.8141C19.9441 21.6775 22.5058 18.9445 23.7304 15.6382C21.175 13.6078 17.7538 12.8944 14.3869 14.031C11.0199 15.1676 8.45821 17.9006 7.23367 21.2069Z" fill="url(#paint5_radial_15_19)"/>
<g style="mix-blend-mode:hard-light">
<path d="M7.23367 21.2069C9.78905 23.2373 13.2102 23.9506 16.5772 22.8141C19.9441 21.6775 22.5058 18.9445 23.7304 15.6382C21.175 13.6078 17.7538 12.8944 14.3869 14.031C11.0199 15.1676 8.45821 17.9006 7.23367 21.2069Z" fill="black" fill-opacity="0.2"/>
</g>
<path style="mix-blend-mode:hard-light" d="M7.23367 21.2069C9.78905 23.2373 13.2102 23.9506 16.5772 22.8141C19.9441 21.6775 22.5058 18.9445 23.7304 15.6382C21.175 13.6078 17.7538 12.8944 14.3869 14.031C11.0199 15.1676 8.45821 17.9006 7.23367 21.2069Z" fill="url(#paint6_linear_15_19)" fill-opacity="0.5"/>
<path d="M16.5682 22.7873C13.2176 23.9183 9.81362 23.2123 7.26721 21.1974C8.49195 17.9067 11.0444 15.1889 14.3959 14.0576C17.7465 12.9265 21.1504 13.6325 23.6968 15.6475C22.4721 18.9382 19.9196 21.6559 16.5682 22.7873Z" stroke="url(#paint7_linear_15_19)" stroke-opacity="0.05" stroke-width="0.056338"/>
<defs>
<radialGradient id="paint0_radial_15_19" cx="0" cy="0" r="1" gradientUnits="userSpaceOnUse" gradientTransform="translate(-3.00504 15.023) rotate(-10.029) scale(17.9572 17.784)">
<stop stop-color="#00B0BB"/>
<stop offset="1" stop-color="#00DB65"/>
</radialGradient>
<linearGradient id="paint1_linear_15_19" x1="7.39035" y1="4.81303" x2="1.62974" y2="18.6894" gradientUnits="userSpaceOnUse">
<stop stop-color="#18E299"/>
<stop offset="1"/>
</linearGradient>
<linearGradient id="paint2_linear_15_19" x1="7.94816" y1="8.01566" x2="1.7612" y2="18.746" gradientUnits="userSpaceOnUse">
<stop/>
<stop offset="1" stop-opacity="0"/>
</linearGradient>
<radialGradient id="paint3_radial_15_19" cx="0" cy="0" r="1" gradientUnits="userSpaceOnUse" gradientTransform="translate(8.11404 20.8822) rotate(-75.7542) scale(21.6246 23.7772)">
<stop stop-color="#00BBBB"/>
<stop offset="0.712616" stop-color="#00DB65"/>
</radialGradient>
<linearGradient id="paint4_linear_15_19" x1="7.60206" y1="5.87092" x2="15.5561" y2="16.3719" gradientUnits="userSpaceOnUse">
<stop/>
<stop offset="1" stop-opacity="0"/>
</linearGradient>
<radialGradient id="paint5_radial_15_19" cx="0" cy="0" r="1" gradientUnits="userSpaceOnUse" gradientTransform="translate(7.84536 21.5181) rotate(-20.3525) scale(18.5603 17.32)">
<stop stop-color="#00B0BB"/>
<stop offset="1" stop-color="#00DB65"/>
</radialGradient>
<linearGradient id="paint6_linear_15_19" x1="16.8078" y1="13.0071" x2="10.0409" y2="22.9937" gradientUnits="userSpaceOnUse">
<stop stop-color="#00B1BC"/>
<stop offset="1"/>
</linearGradient>
<linearGradient id="paint7_linear_15_19" x1="16.8078" y1="13.007" x2="14.1687" y2="23.8409" gradientUnits="userSpaceOnUse">
<stop/>
<stop offset="1" stop-opacity="0"/>
</linearGradient>
</defs>
</svg>