<svg width="426" height="74" viewBox="0 0 426 74" fill="none" xmlns="http://www.w3.org/2000/svg">
<path d="M105.677 47.5885L105.661 46.9062L105.656 46.724L105.646 46.6458L105.635 46.4948L105.604 46.1875C105.562 45.776 105.531 45.375 105.484 44.9531C105.328 44.0156 105.198 43.0469 104.953 42.1875L104.792 41.5312C104.766 41.4219 104.74 41.3125 104.708 41.2031L104.604 40.8802C104.469 40.4479 104.318 40.026 104.172 39.599C103.521 37.9167 102.734 36.3073 101.75 34.8281C101.51 34.4531 101.24 34.1042 100.984 33.7396C100.854 33.5625 100.734 33.3802 100.589 33.2135L100.167 32.7083L99.7344 32.2083L99.526 31.9583L99.2969 31.724C98.9896 31.4115 98.6875 31.0937 98.375 30.7917C98.0573 30.4948 97.724 30.2135 97.3958 29.9323C97.0781 29.6406 96.7292 29.3802 96.3854 29.125C95.7031 28.5937 94.9688 28.151 94.2448 27.6979C92.7604 26.8646 91.1979 26.1927 89.6042 25.7344C90.9583 26.7083 92.2188 27.7396 93.3646 28.8594C93.6354 29.1563 93.9167 29.4427 94.1875 29.7292C94.4688 30.0104 94.7083 30.3333 94.9635 30.6302L95.3438 31.0833C95.474 31.2292 95.5781 31.401 95.6979 31.5573C95.9271 31.875 96.1667 32.1823 96.3854 32.5052C97.2604 33.7969 97.9792 35.1615 98.599 36.5469L99.0156 37.6094C99.0469 37.6979 99.0833 37.7813 99.1146 37.8698L99.2031 38.1406L99.375 38.6823L99.5469 39.2135C99.6042 39.3958 99.6406 39.5781 99.6875 39.7604C99.776 40.125 99.875 40.4844 99.9479 40.849C100.24 42.3021 100.396 43.8177 100.411 45.1562L100.385 46.3802L100.38 46.6875L100.375 46.8438V46.9167C100.375 47.0104 100.375 46.8125 100.375 46.8385L100.37 46.8594V46.8906L100.318 47.4375C100.302 47.6198 100.297 47.7969 100.271 47.9792L100.198 48.5208C100.156 48.8802 100.083 49.2344 100.016 49.5885C99.8906 50.3021 99.7135 51 99.5104 51.6875C99.4635 51.8594 99.4115 52.0313 99.349 52.2031L99.1823 52.7083C99.0677 53.0469 98.9271 53.3802 98.8021 53.7135C98.2656 55.0365 97.5885 56.2917 96.8021 57.474C96.0156 58.651 95.1094 59.7448 94.1094 60.7448C93.1094 61.7396 92.0208 62.6458 90.8438 63.4167C89.6719 64.1927 88.4219 64.849 87.1198 65.3802C85.8177 65.9063 84.4635 66.3021 83.0781 66.5573C82.7344 66.6354 82.3802 66.6719 82.0365 66.724L81.7708 66.7656L81.5312 66.7865L81.0469 66.8385C80.9583 66.8438 80.8958 66.8594 80.7917 66.8646L80.4844 66.875L79.8698 66.9062L79.7135 66.9115L79.6771 66.9167H78.8542C78.1458 66.901 77.4375 66.8698 76.7344 66.776L76.2031 66.7135L75.6771 66.6354C75.3229 66.5833 74.974 66.5 74.625 66.4323C73.2292 66.1354 71.8646 65.6823 70.5417 65.1094C69.2188 64.5313 67.9531 63.8073 66.75 62.974L65.3646 62.0156L64.151 62.6042L63.4948 62.9219L62.8281 63.224L62.1562 63.5104L61.4792 63.7812L60.7917 64.0365L60.0938 64.276C59.6302 64.4375 59.1615 64.5833 58.6875 64.7188C58.2135 64.8542 57.7344 64.9792 57.25 65.0885C56.7708 65.1979 56.2865 65.3125 55.7969 65.4062L55.0625 65.5365L54.3229 65.651L53.5938 65.75L53.2031 65.7969L52.9062 65.8281L52.8542 65.8333L52.8333 65.8385H52.8125C52.8177 65.8385 52.7865 65.8385 52.8281 65.8385L52.0729 65.9062L51.3177 65.9583C50.8125 65.9844 50.3073 66.0052 49.7969 66.0156C49.2865 66.026 48.776 66.0208 48.2656 66.0052L47.4948 65.974C47.2396 65.9635 46.9844 65.9427 46.724 65.9323C46.2083 65.8906 45.6979 65.8385 45.1771 65.7865L44.4062 65.6927L43.6302 65.5781L42.8542 65.4479L42.0729 65.3073C41.5625 65.2031 41.0365 65.0938 40.5156 64.974L41.1979 65.3958L41.901 65.7865C42.375 66.0469 42.8542 66.2813 43.3438 66.5104C43.8333 66.7396 44.3333 66.9479 44.8385 67.1458C45.3438 67.349 45.8542 67.526 46.375 67.6979C46.8906 67.8594 47.4167 68.026 47.9479 68.1615C48.474 68.2969 49.0104 68.4219 49.5469 68.5365L50.3594 68.6927L51.1771 68.8229L52 68.9323L52.8281 69.0208L53.6354 69.0885L54.4896 69.125L55.3229 69.1458H56.1615C56.7188 69.1354 57.2813 69.1146 57.8438 69.0729C58.401 69.0312 58.9583 68.974 59.5208 68.9062C60.0781 68.8385 60.6354 68.7552 61.1927 68.6562C61.75 68.5573 62.3021 68.4323 62.8542 68.3073L63.6771 68.099L64.5 67.8698L64.5625 67.849C65.6354 68.7083 66.7813 69.4896 67.9948 70.1615C69.6042 71.0521 71.3177 71.7813 73.099 72.3021C74.8802 72.8229 76.724 73.1458 78.5833 73.2708L79.6302 73.3177H80.6458L80.9531 73.3125C81.0573 73.3125 81.1927 73.3021 81.3125 73.2969L82.0573 73.2552L82.4271 73.2344L82.776 73.1979C83.2396 73.1406 83.7031 73.099 84.1667 73.0156C86.0156 72.7292 87.8333 72.2344 89.5833 71.5469C91.3281 70.8594 92.9948 69.9792 94.5469 68.9323C96.099 67.8802 97.5313 66.6562 98.8073 65.2917C100.094 63.9323 101.219 62.4323 102.177 60.8281C103.13 59.2292 103.906 57.526 104.474 55.7604C104.604 55.3125 104.75 54.875 104.865 54.4271L105.031 53.75C105.089 53.526 105.141 53.3021 105.182 53.0729C105.365 52.1667 105.5 51.2552 105.583 50.3385C105.62 49.8802 105.661 49.4219 105.667 48.9635L105.688 48.276C105.693 48.0469 105.682 47.8177 105.677 47.5885Z" fill="white"/>
<mask id="mask0_3_77" style="mask-type:luminance" maskUnits="userSpaceOnUse" x="0" y="0" width="84" height="71">
<path d="M0 0.666672H83.3333V71H0V0.666672Z" fill="white"/>
</mask>
<g mask="url(#mask0_3_77)">
<path d="M81.0312 19.151L80.4948 18.0469L79.9219 16.9583C79.7135 16.6042 79.5052 16.25 79.2969 15.8958C79.0729 15.5521 78.8542 15.2031 78.625 14.8594C77.7135 13.4792 76.6667 12.1875 75.5365 10.9583C74.3958 9.73958 73.1562 8.60417 71.8281 7.5625C70.4948 6.53125 69.0781 5.59375 67.5938 4.76562C66.1042 3.94792 64.5469 3.23958 62.9375 2.65625C61.3229 2.06771 59.6615 1.61979 57.9687 1.29167C56.276 0.958333 54.5573 0.770833 52.8281 0.708333L51.5729 0.6875C51.1406 0.6875 50.6823 0.703126 50.2344 0.713542C49.7865 0.729167 49.3646 0.765625 48.9271 0.791667C48.4948 0.822917 48.0625 0.880208 47.6302 0.921875C45.901 1.13542 44.1823 1.47396 42.5 1.94271C40.8125 2.41146 39.1667 3.03646 37.5729 3.76042C35.9792 4.49479 34.4375 5.34375 32.9688 6.3125C31.5052 7.28646 30.1094 8.36458 28.8125 9.55208C27.5104 10.7344 26.2969 12.0208 25.1927 13.3958C23.375 15.6406 21.8437 18.1198 20.6458 20.7552C19.651 20.9635 18.6667 21.224 17.6979 21.5469C16.1094 22.0729 14.5781 22.7604 13.125 23.5781C11.6719 24.3958 10.3073 25.3646 9.04166 26.4375C7.77604 27.5156 6.61979 28.7188 5.58854 30.0156C4.55729 31.3125 3.64062 32.6979 2.8802 34.1667C2.11979 35.6354 1.5052 37.1719 1.04166 38.7552C0.807289 39.5417 0.609371 40.3385 0.45833 41.1458C0.385412 41.5521 0.307289 41.9531 0.260413 42.3594C0.20833 42.7656 0.145829 43.1719 0.119788 43.5781C0.0885375 43.9896 0.0468711 44.3958 0.0416631 44.8021C0.0260378 45.2083 0.00520414 45.6146 0.0156215 46.0208L0.0208298 46.6354L0.0260381 46.7865V46.9219L0.0312465 46.9948L0.0520798 47.2656L0.0833298 47.8125L0.104163 48.0885L0.135413 48.4062L0.20833 49.0417C0.234371 49.25 0.255204 49.4688 0.291663 49.6615C0.359371 50.0625 0.421871 50.4635 0.499996 50.8594L0.765622 52.0417L1.08854 53.2083C1.55208 54.7552 2.18229 56.2448 2.93229 57.651C3.6875 59.0625 4.57291 60.3958 5.57812 61.6146C6.58854 62.8333 7.6927 63.9635 8.90625 64.9531C10.1198 65.9427 11.4062 66.8229 12.776 67.5521C14.1354 68.2812 15.5625 68.875 17.0208 69.3125C18.4792 69.7552 19.974 70.0417 21.4687 70.1771C22.9635 70.3125 24.4583 70.2969 25.9219 70.1146C24.4583 69.9323 23.026 69.6406 21.651 69.2292C20.2656 68.8229 18.9427 68.2865 17.6771 67.651C16.4219 67.0104 15.2292 66.2708 14.1198 65.4323C13.0208 64.5885 11.9896 63.6667 11.0677 62.651C10.1458 61.6406 9.3125 60.5677 8.59375 59.4219C7.88021 58.276 7.26562 57.0781 6.77083 55.8438C6.27604 54.6094 5.90625 53.3333 5.64062 52.0417L5.46875 51.0729L5.34375 50.099C5.3125 49.7708 5.29166 49.4427 5.26562 49.1198C5.25 48.9531 5.2552 48.8021 5.25 48.651L5.23958 48.1875L5.22916 47.9583L5.23437 47.6823L5.23958 47.1354L5.24479 46.8594V46.776C5.24479 46.7083 5.24479 46.8438 5.24479 46.8229L5.25 46.7917L5.25521 46.6719L5.29166 46.1875C5.30208 45.8594 5.34896 45.5365 5.38541 45.2135C5.41146 44.8906 5.47396 44.5729 5.52604 44.2552C5.5677 43.9323 5.64583 43.6198 5.70833 43.3021C5.76562 42.9844 5.85937 42.6771 5.9375 42.3646C6.09375 41.7448 6.28646 41.1302 6.5052 40.526C6.9427 39.3229 7.48958 38.1615 8.14583 37.0677C8.79166 35.9688 9.53646 34.9323 10.3698 33.974C11.2031 33.0156 12.1302 32.1458 13.1146 31.3542C14.1042 30.5677 15.1615 29.8802 16.2708 29.2812C17.3802 28.6875 18.5417 28.2031 19.7396 27.8229C20.9323 27.4427 22.1667 27.1823 23.4115 27.0208L25.3646 26.7812L26.0885 24.9375C26.6146 23.6094 27.2396 22.3177 27.9531 21.0729C28.6667 19.8333 29.474 18.6406 30.3594 17.5156C31.2448 16.3906 32.2135 15.3229 33.25 14.3281C34.2969 13.3437 35.401 12.4219 36.5781 11.5885C37.75 10.7552 38.9792 9.99479 40.2656 9.34375C41.5521 8.68229 42.8906 8.13021 44.2552 7.65104C45.6302 7.18229 47.0365 6.80729 48.4687 6.54688C48.8281 6.48958 49.1875 6.41667 49.5469 6.36979C49.9062 6.32292 50.276 6.26042 50.6302 6.22396L51.6823 6.11458L52.8281 6.04688C54.2969 5.98958 55.7656 6.04167 57.2396 6.18229C58.7083 6.32292 60.1667 6.58333 61.6146 6.94271C63.0573 7.29688 64.4844 7.76563 65.8698 8.33854C67.2656 8.90104 68.6198 9.56771 69.9271 10.3385C71.2396 11.1042 72.5052 11.9688 73.7031 12.9271C74.9167 13.875 76.0521 14.9271 77.1302 16.0521C77.3958 16.3333 77.6562 16.625 77.9219 16.9115L78.6823 17.8021L79.4219 18.724L80.125 19.6719C81.0573 20.9583 81.8854 22.3073 82.6562 23.7292C82.2604 22.1719 81.6979 20.6354 81.0312 19.151Z" fill="#24AEE6"/>
</g>
<mask id="mask1_3_77" style="mask-type:luminance" maskUnits="userSpaceOnUse" x="23" y="29" width="61" height="37">
<path d="M23.0677 29.3125H83.0677V65.3125H23.0677V29.3125Z" fill="white"/>
</mask>
<g mask="url(#mask1_3_77)">
<path d="M80.6823 33.8542C80.1719 33.8542 79.6875 34.0573 79.3125 34.4219C78.9479 34.7865 78.7448 35.2708 78.7448 35.7917V46.1927H77.4583C77.6406 45.8958 77.7552 45.5469 77.7552 45.1771C77.7552 44.651 77.5469 44.1563 77.1771 43.7813C77.0573 43.6667 76.9271 43.5729 76.7864 43.4896C77.375 42.9792 77.7552 42.2292 77.7552 41.3958V41.2604C77.7552 39.7396 76.5156 38.5 74.9896 38.5H59.0573C57.5312 38.5 56.2916 39.7396 56.2916 41.2604V41.3958C56.2916 42.0885 56.5521 42.724 56.9791 43.2083H36.5052C37.625 42.5313 38.0573 41.099 37.4583 39.9167L34.4166 33.901C33.7448 32.5573 32.1041 32.0104 30.7552 32.6771L29.8021 33.151L28.5573 30.6823C28.2864 30.1458 27.8281 29.7448 27.2604 29.5573C26.6875 29.3698 26.0833 29.4167 25.5469 29.6875C24.7864 30.0729 24.3125 30.8438 24.3125 31.6927C24.3125 32.0365 24.3906 32.375 24.5521 32.6927L25.1406 33.8646C25.0937 33.8646 25.0469 33.8542 25 33.8542C24.4948 33.8542 24.0104 34.0573 23.6354 34.4219C23.2708 34.7865 23.0677 35.2708 23.0677 35.7917V47.3281C23.0677 48.8385 24.2969 50.0625 25.8021 50.0625H30.0208V51.1927H29.2135C27.5104 51.1927 26.125 52.5729 26.125 54.2708V59.1094C25.0312 59.7292 24.3333 60.8906 24.3333 62.1667C24.3333 64.1042 25.9166 65.6875 27.8541 65.6875C29.7969 65.6875 31.375 64.1042 31.375 62.1667C31.375 60.8906 30.6823 59.7292 29.5885 59.1094V58.1042H75.6614V59.1094C74.5625 59.724 73.8646 60.8854 73.8646 62.1667C73.8646 64.1042 75.4479 65.6875 77.3906 65.6875C79.3281 65.6875 80.9114 64.1042 80.9114 62.1667C80.9114 60.8906 80.2083 59.724 79.1198 59.1094V54.2708C79.1198 52.5729 77.7344 51.1927 76.0312 51.1927H75.2239V50.0625H79.8854C81.3906 50.0625 82.6146 48.8333 82.6146 47.3281V35.7865C82.6146 34.724 81.75 33.8542 80.6823 33.8542ZM26.9375 46.1927V37.4427L31.3437 46.1927H26.9375ZM57.2396 41.3958V41.2604C57.2396 40.2604 58.0521 39.4479 59.0573 39.4479H74.9896C75.8489 39.4479 76.5729 40.0521 76.7604 40.8542H59.5573C59.2969 40.8542 59.0833 41.0677 59.0833 41.3281C59.0833 41.5885 59.2969 41.8021 59.5573 41.8021H76.7604C76.5729 42.6042 75.8541 43.2083 74.9896 43.2083H59.0573C58.0521 43.2083 57.2396 42.3958 57.2396 41.3958ZM25.9687 30.5313C26.2812 30.375 26.6354 30.349 26.9635 30.4583C27.2916 30.5677 27.5573 30.7969 27.7135 31.1042L34.151 43.8958C34.2291 44.0521 34.3958 44.1563 34.5729 44.1563H75.7864C76.0625 44.1563 76.3177 44.2604 76.5052 44.4531C76.7031 44.6458 76.8073 44.8958 76.8073 45.1771C76.8073 45.7344 76.3489 46.1927 75.7864 46.1927H32.401L25.3958 32.2708C25.3021 32.0833 25.2552 31.8906 25.2552 31.6927C25.2552 31.1979 25.5312 30.7552 25.9687 30.5313ZM28.6406 62.1667C28.6406 62.599 28.2864 62.9479 27.8541 62.9479C27.4219 62.9479 27.0729 62.599 27.0729 62.1667C27.0729 61.7344 27.4219 61.3802 27.8541 61.3802C28.2864 61.3802 28.6406 61.7344 28.6406 62.1667ZM78.1719 62.1667C78.1719 62.599 77.8229 62.9479 77.3906 62.9479C76.9583 62.9479 76.6041 62.599 76.6041 62.1667C76.6041 61.7344 76.9583 61.3802 77.3906 61.3802C77.8229 61.3802 78.1719 61.7344 78.1719 62.1667ZM78.1719 54.2708V58.7344C77.6614 58.6198 77.1198 58.6198 76.6041 58.7344V57.6302C76.6041 57.3698 76.3958 57.1615 76.1302 57.1615H29.1146C28.8541 57.1615 28.6406 57.3698 28.6406 57.6302V58.7344C28.125 58.6198 27.5833 58.6198 27.0729 58.7344V54.2708C27.0729 53.0938 28.0312 52.1354 29.2135 52.1354H76.0312C77.2135 52.1354 78.1719 53.0938 78.1719 54.2708ZM74.2812 51.1927H30.9687V50.0625H74.2812V51.1927Z" fill="white"/>
</g>
<mask id="mask2_3_77" style="mask-type:luminance" maskUnits="userSpaceOnUse" x="42" y="8" width="22" height="29">
<path d="M42 8.79167H63.3333V36.7917H42V8.79167Z" fill="white"/>
</mask>
<g mask="url(#mask2_3_77)">
<path fill-rule="evenodd" clip-rule="evenodd" d="M49.3958 11.8073C49.5313 11.8073 49.6615 11.8073 49.7969 11.8177C49.5469 11.4948 49.3958 11.0938 49.3958 10.6563C49.3958 9.63021 50.2292 8.79167 51.2604 8.79167C52.2917 8.79167 53.1302 9.63021 53.1302 10.6563C53.1302 11.375 52.724 12 52.1302 12.3125C54.6198 13.2708 56.4844 15.4948 56.9219 18.1979C55.4948 15.276 52.4896 13.2604 49.0156 13.2604C46.4427 13.2604 44.125 14.3646 42.5156 16.125C43.75 13.5729 46.3698 11.8073 49.3958 11.8073ZM56.2865 33.9792C56.151 33.9792 56.0156 33.9792 55.8802 33.9688C56.1354 34.2865 56.2865 34.6875 56.2865 35.125C56.2865 36.1563 55.4479 36.9896 54.4167 36.9896C53.3906 36.9896 52.5521 36.1563 52.5521 35.125C52.5521 34.4115 52.9531 33.7865 53.5469 33.474C51.0573 32.5156 49.1979 30.2917 48.7552 27.5885C50.1875 30.5156 53.1875 32.526 56.6615 32.526C59.2344 32.526 61.5521 31.4219 63.1615 29.6615C61.9323 32.2188 59.3177 33.9792 56.2865 33.9792Z" fill="white"/>
</g>
<path fill-rule="evenodd" clip-rule="evenodd" d="M60.7188 14.3646C60.7865 14.4844 60.849 14.599 60.9115 14.7187C61.0625 14.3437 61.3333 14.0104 61.7136 13.7917C62.6042 13.276 63.7448 13.5833 64.2604 14.474C64.7761 15.3646 64.4688 16.5104 63.5781 17.026C62.9583 17.3854 62.2188 17.3437 61.6511 16.9896C62.0677 19.625 61.0677 22.3437 58.9531 24.0833C60.7656 21.3802 61.0104 17.7708 59.2761 14.7656C57.9844 12.5312 55.8698 11.0833 53.5365 10.5677C56.3698 10.3594 59.2031 11.7448 60.7188 14.3646ZM44.9583 31.4167C44.8906 31.3021 44.8281 31.1875 44.7656 31.0677C44.6198 31.4479 44.349 31.776 43.9688 31.9948C43.0729 32.5052 41.9323 32.2031 41.4167 31.3125C40.9011 30.4167 41.2083 29.276 42.099 28.7604C42.7188 28.401 43.4636 28.4427 44.0313 28.7969C43.6146 26.1615 44.6094 23.4375 46.724 21.7031C44.9115 24.4062 44.6719 28.0104 46.4115 31.0208C47.6927 33.25 49.8125 34.7031 52.1406 35.2135C49.3125 35.4271 46.474 34.0417 44.9583 31.4167Z" fill="#6ED0EB"/>
<mask id="mask3_3_77" style="mask-type:luminance" maskUnits="userSpaceOnUse" x="39" y="15" width="28" height="15">
<path d="M39.3333 15H66.3229V29.6667H39.3333V15Z" fill="white"/>
</mask>
<g mask="url(#mask3_3_77)">
<path fill-rule="evenodd" clip-rule="evenodd" d="M64.1614 25.4531C64.0989 25.5677 64.026 25.6823 63.9531 25.7917C64.3541 25.7396 64.776 25.8073 65.1614 26.026C66.0469 26.5417 66.3541 27.6823 65.8385 28.5729C65.3281 29.4687 64.1823 29.776 63.2864 29.2604C62.6719 28.901 62.3281 28.2396 62.3594 27.5677C60.2812 29.25 57.4271 29.75 54.8698 28.7812C58.1094 29.0052 61.3594 27.4062 63.0937 24.3958C64.3802 22.1667 64.5833 19.6094 63.8594 17.3333C65.4583 19.6823 65.6823 22.8281 64.1614 25.4531ZM41.5156 20.3333C41.5781 20.2135 41.6562 20.1042 41.7239 19.9896C41.3229 20.0469 40.901 19.9792 40.526 19.7604C39.6302 19.2448 39.3229 18.1042 39.8385 17.2083C40.3541 16.3177 41.4948 16.0156 42.3906 16.526C43.0104 16.8854 43.3489 17.5417 43.3177 18.2135C45.3958 16.5417 48.25 16.0365 50.8177 17.0052C47.5677 16.7865 44.3229 18.375 42.5833 21.3854C41.2969 23.6146 41.0937 26.1771 41.8177 28.4479C40.2239 26.1042 40.0052 22.9531 41.5156 20.3333Z" fill="#24AEE6"/>
</g>
<path fill-rule="evenodd" clip-rule="evenodd" d="M57.0625 24.4792V21.3021H54.4271V18.6719H51.2552V21.3021H48.6146V24.4792H51.2552V27.1198H54.4271V24.4792H57.0625Z" fill="white"/>
<path d="M117.293 36.4114C117.293 33.4426 117.96 30.776 119.293 28.4114C120.637 26.052 122.481 24.2187 124.814 22.9114C127.148 21.5937 129.757 20.9322 132.648 20.9322C136.023 20.9322 138.981 21.802 141.523 23.5364C144.075 25.276 145.861 27.677 146.877 30.7447H139.898C139.2 29.2864 138.22 28.1978 136.96 27.4739C135.694 26.7551 134.241 26.3906 132.606 26.3906C130.84 26.3906 129.273 26.8072 127.898 27.6406C126.523 28.4635 125.45 29.6301 124.689 31.1406C123.924 32.6406 123.543 34.401 123.543 36.4114C123.543 38.4114 123.924 40.177 124.689 41.7031C125.45 43.2187 126.523 44.3853 127.898 45.2031C129.273 46.026 130.84 46.4322 132.606 46.4322C134.241 46.4322 135.694 46.0676 136.96 45.3281C138.22 44.5937 139.2 43.5051 139.898 42.0572H146.877C145.861 45.1562 144.09 47.5676 141.564 49.2864C139.033 50.9947 136.064 51.8489 132.648 51.8489C129.757 51.8489 127.148 51.1978 124.814 49.8906C122.481 48.5728 120.637 46.7447 119.293 44.4114C117.96 42.0676 117.293 39.401 117.293 36.4114Z" fill="white"/>
<path d="M150.516 39.4947C150.516 37.0676 150.995 34.9114 151.954 33.0364C152.922 31.1614 154.245 29.7187 155.912 28.7031C157.579 27.6926 159.433 27.1822 161.474 27.1822C163.277 27.1822 164.849 27.5468 166.183 28.2656C167.527 28.9895 168.605 29.901 169.412 30.9947V27.5781H175.537V51.5989H169.412V48.0781C168.631 49.2187 167.558 50.1562 166.183 50.8906C164.808 51.6249 163.224 51.9947 161.433 51.9947C159.417 51.9947 157.579 51.4739 155.912 50.4322C154.245 49.3906 152.922 47.927 151.954 46.0364C150.995 44.1353 150.516 41.9531 150.516 39.4947ZM169.412 39.5781C169.412 38.1093 169.12 36.8437 168.537 35.7864C167.964 34.7343 167.188 33.927 166.204 33.3697C165.23 32.802 164.172 32.5156 163.037 32.5156C161.912 32.5156 160.87 32.7968 159.912 33.3489C158.964 33.8906 158.193 34.6926 157.599 35.7447C157 36.802 156.704 38.052 156.704 39.4947C156.704 40.9426 157 42.2031 157.599 43.2864C158.193 44.3697 158.974 45.2031 159.933 45.7864C160.902 46.3697 161.938 46.6614 163.037 46.6614C164.172 46.6614 165.23 46.3801 166.204 45.8072C167.188 45.2395 167.964 44.427 168.537 43.3697C169.12 42.3176 169.412 41.052 169.412 39.5781Z" fill="white"/>
<path d="M187.544 31.3072C188.32 30.0312 189.336 29.0312 190.586 28.3072C191.846 27.5885 193.294 27.2239 194.919 27.2239V33.5989H193.315C191.409 33.5989 189.971 34.052 189.002 34.953C188.028 35.8437 187.544 37.401 187.544 39.6197V51.5989H181.482V27.578H187.544V31.3072Z" fill="white"/>
<path d="M221.335 39.0572C221.335 39.9322 221.278 40.7187 221.169 41.4114H203.585C203.736 43.151 204.346 44.5103 205.419 45.4947C206.486 46.4687 207.799 46.9531 209.356 46.9531C211.616 46.9531 213.221 45.9895 214.169 44.0572H220.731C220.033 46.3645 218.7 48.2656 216.731 49.7656C214.773 51.2551 212.361 51.9947 209.502 51.9947C207.179 51.9947 205.106 51.4843 203.273 50.4531C201.439 49.427 200.007 47.9739 198.981 46.0989C197.95 44.2135 197.439 42.0364 197.439 39.5781C197.439 37.0937 197.939 34.9114 198.939 33.0364C199.95 31.1614 201.366 29.7187 203.189 28.7031C205.023 27.6926 207.127 27.1822 209.502 27.1822C211.778 27.1822 213.82 27.677 215.627 28.6614C217.429 29.6353 218.835 31.0312 219.835 32.8489C220.835 34.6562 221.335 36.7239 221.335 39.0572ZM215.044 37.3281C215.012 35.776 214.45 34.526 213.356 33.5781C212.257 32.6353 210.908 32.1614 209.314 32.1614C207.814 32.1614 206.549 32.6197 205.523 33.5364C204.491 34.4426 203.861 35.7031 203.627 37.3281H215.044Z" fill="white"/>
<path d="M224.289 36.4114C224.289 33.4426 224.956 30.776 226.289 28.4114C227.633 26.052 229.477 24.2187 231.81 22.9114C234.144 21.5937 236.753 20.9322 239.644 20.9322C243.019 20.9322 245.977 21.802 248.519 23.5364C251.071 25.276 252.857 27.677 253.873 30.7447H246.894C246.196 29.2864 245.216 28.1978 243.956 27.4739C242.69 26.7551 241.237 26.3906 239.602 26.3906C237.836 26.3906 236.269 26.8072 234.894 27.6406C233.519 28.4635 232.446 29.6301 231.685 31.1406C230.92 32.6406 230.539 34.401 230.539 36.4114C230.539 38.4114 230.92 40.177 231.685 41.7031C232.446 43.2187 233.519 44.3853 234.894 45.2031C236.269 46.026 237.836 46.4322 239.602 46.4322C241.237 46.4322 242.69 46.0676 243.956 45.3281C245.216 44.5937 246.196 43.5051 246.894 42.0572H253.873C252.857 45.1562 251.086 47.5676 248.56 49.2864C246.029 50.9947 243.06 51.8489 239.644 51.8489C236.753 51.8489 234.144 51.1978 231.81 49.8906C229.477 48.5728 227.633 46.7447 226.289 44.4114C224.956 42.0676 224.289 39.401 224.289 36.4114Z" fill="#24AEE7"/>
<path d="M257.512 39.4947C257.512 37.0676 257.991 34.9114 258.949 33.0364C259.918 31.1614 261.241 29.7187 262.908 28.7031C264.574 27.6926 266.429 27.1822 268.47 27.1822C270.272 27.1822 271.845 27.5468 273.179 28.2656C274.522 28.9895 275.601 29.901 276.408 30.9947V27.5781H282.533V51.5989H276.408V48.0781C275.627 49.2187 274.554 50.1562 273.179 50.8906C271.804 51.6249 270.22 51.9947 268.429 51.9947C266.413 51.9947 264.574 51.4739 262.908 50.4322C261.241 49.3906 259.918 47.927 258.949 46.0364C257.991 44.1353 257.512 41.9531 257.512 39.4947ZM276.408 39.5781C276.408 38.1093 276.116 36.8437 275.533 35.7864C274.96 34.7343 274.184 33.927 273.199 33.3697C272.226 32.802 271.168 32.5156 270.033 32.5156C268.908 32.5156 267.866 32.7968 266.908 33.3489C265.96 33.8906 265.189 34.6926 264.595 35.7447C263.996 36.802 263.699 38.052 263.699 39.4947C263.699 40.9426 263.996 42.2031 264.595 43.2864C265.189 44.3697 265.97 45.2031 266.929 45.7864C267.897 46.3697 268.934 46.6614 270.033 46.6614C271.168 46.6614 272.226 46.3801 273.199 45.8072C274.184 45.2395 274.96 44.427 275.533 43.3697C276.116 42.3176 276.408 41.052 276.408 39.5781Z" fill="#24AEE7"/>
<path d="M294.54 31.0364C295.316 29.9426 296.394 29.026 297.769 28.2864C299.144 27.552 300.712 27.1822 302.477 27.1822C304.53 27.1822 306.384 27.6926 308.04 28.7031C309.707 29.7187 311.024 31.1562 311.998 33.0156C312.967 34.8801 313.457 37.0364 313.457 39.4947C313.457 41.9531 312.967 44.1353 311.998 46.0364C311.024 47.927 309.707 49.3906 308.04 50.4322C306.384 51.4739 304.53 51.9947 302.477 51.9947C300.712 51.9947 299.155 51.6301 297.811 50.9114C296.477 50.1926 295.384 49.2812 294.54 48.1822V63.0572H288.477V27.5781H294.54V31.0364ZM307.248 39.4947C307.248 38.052 306.946 36.802 306.352 35.7447C305.769 34.6926 304.988 33.8906 304.019 33.3489C303.045 32.7968 301.998 32.5156 300.873 32.5156C299.774 32.5156 298.738 32.802 297.769 33.3697C296.811 33.927 296.03 34.7395 295.436 35.8072C294.837 36.8801 294.54 38.1353 294.54 39.5781C294.54 41.026 294.837 42.2812 295.436 43.3489C296.03 44.4218 296.811 45.2395 297.769 45.8072C298.738 46.3801 299.774 46.6614 300.873 46.6614C301.998 46.6614 303.045 46.3697 304.019 45.7864C304.988 45.2031 305.769 44.3801 306.352 43.3072C306.946 42.2395 307.248 40.9687 307.248 39.4947Z" fill="#24AEE7"/>
<path d="M316.318 39.4947C316.318 37.0676 316.797 34.9114 317.755 33.0364C318.724 31.1614 320.047 29.7187 321.714 28.7031C323.38 27.6926 325.235 27.1822 327.276 27.1822C329.078 27.1822 330.651 27.5468 331.985 28.2656C333.328 28.9895 334.407 29.901 335.214 30.9947V27.5781H341.339V51.5989H335.214V48.0781C334.433 49.2187 333.36 50.1562 331.985 50.8906C330.61 51.6249 329.026 51.9947 327.235 51.9947C325.219 51.9947 323.38 51.4739 321.714 50.4322C320.047 49.3906 318.724 47.927 317.755 46.0364C316.797 44.1353 316.318 41.9531 316.318 39.4947ZM335.214 39.5781C335.214 38.1093 334.922 36.8437 334.339 35.7864C333.766 34.7343 332.99 33.927 332.005 33.3697C331.032 32.802 329.974 32.5156 328.839 32.5156C327.714 32.5156 326.672 32.7968 325.714 33.3489C324.766 33.8906 323.995 34.6926 323.401 35.7447C322.802 36.802 322.505 38.052 322.505 39.4947C322.505 40.9426 322.802 42.2031 323.401 43.2864C323.995 44.3697 324.776 45.2031 325.735 45.7864C326.703 46.3697 327.74 46.6614 328.839 46.6614C329.974 46.6614 331.032 46.3801 332.005 45.8072C332.99 45.2395 333.766 44.427 334.339 43.3697C334.922 42.3176 335.214 41.052 335.214 39.5781Z" fill="#24AEE7"/>
<path d="M345.721 39.5781C345.721 37.0937 346.221 34.9218 347.221 33.0572C348.231 31.1978 349.638 29.7551 351.429 28.7239C353.231 27.6978 355.289 27.1822 357.596 27.1822C360.58 27.1822 363.044 27.927 364.992 29.4114C366.95 30.901 368.263 32.9895 368.929 35.6822H362.367C362.018 34.6406 361.434 33.8281 360.617 33.2447C359.794 32.651 358.773 32.3489 357.554 32.3489C355.815 32.3489 354.44 32.9843 353.429 34.2447C352.414 35.4947 351.908 37.276 351.908 39.5781C351.908 41.8697 352.414 43.651 353.429 44.9114C354.44 46.1614 355.815 46.7864 357.554 46.7864C360.013 46.7864 361.617 45.6926 362.367 43.4947H368.929C368.263 46.0937 366.94 48.1614 364.971 49.7031C363.013 51.2343 360.554 51.9947 357.596 51.9947C355.289 51.9947 353.231 51.4843 351.429 50.4531C349.638 49.427 348.231 47.9843 347.221 46.1197C346.221 44.2447 345.721 42.0676 345.721 39.5781Z" fill="#24AEE7"/>
<path d="M376.453 24.703C375.38 24.703 374.495 24.3645 373.786 23.6822C373.078 23.0051 372.724 22.1562 372.724 21.1405C372.724 20.1405 373.078 19.302 373.786 18.6197C374.495 17.9426 375.38 17.5989 376.453 17.5989C377.536 17.5989 378.432 17.9426 379.141 18.6197C379.849 19.302 380.203 20.1405 380.203 21.1405C380.203 22.1562 379.849 23.0051 379.141 23.6822C378.432 24.3645 377.536 24.703 376.453 24.703ZM379.453 27.578V51.5989H373.391V27.578H379.453Z" fill="#24AEE7"/>
<path d="M392.509 32.5572V44.1822C392.509 44.9895 392.702 45.5728 393.092 45.9322C393.478 46.2968 394.139 46.4739 395.072 46.4739H397.884V51.5989H394.072C388.947 51.5989 386.384 49.1145 386.384 44.1406V32.5572H383.53V27.5781H386.384V21.6197H392.509V27.5781H397.884V32.5572H392.509Z" fill="#24AEE7"/>
<path d="M425.252 27.578L410.377 62.953H403.919L409.127 50.9947L399.481 27.578H406.294L412.502 44.3489L418.794 27.578H425.252Z" fill="#24AEE7"/>
</svg>
