<svg width="445" height="88" viewBox="0 0 445 88" fill="none" xmlns="http://www.w3.org/2000/svg">
<path d="M136.293 52.7447C136.293 49.7759 136.96 47.1093 138.293 44.7447C139.637 42.3853 141.481 40.552 143.814 39.2447C146.148 37.927 148.757 37.2655 151.648 37.2655C155.023 37.2655 157.981 38.1353 160.523 39.8697C163.075 41.6093 164.861 44.0103 165.877 47.078H158.898C158.2 45.6197 157.22 44.5311 155.96 43.8072C154.694 43.0884 153.241 42.7238 151.606 42.7238C149.84 42.7238 148.273 43.1405 146.898 43.9738C145.523 44.7968 144.45 45.9634 143.689 47.4738C142.924 48.9738 142.543 50.7343 142.543 52.7447C142.543 54.7447 142.924 56.5103 143.689 58.0363C144.45 59.552 145.523 60.7186 146.898 61.5363C148.273 62.3593 149.84 62.7655 151.606 62.7655C153.241 62.7655 154.694 62.4009 155.96 61.6613C157.22 60.927 158.2 59.8384 158.898 58.3905H165.877C164.861 61.4895 163.09 63.9009 160.564 65.6197C158.033 67.328 155.064 68.1822 151.648 68.1822C148.757 68.1822 146.148 67.5311 143.814 66.2238C141.481 64.9061 139.637 63.078 138.293 60.7447C136.96 58.4009 136.293 55.7343 136.293 52.7447Z" fill="#424567"/>
<path d="M169.516 55.828C169.516 53.4009 169.995 51.2447 170.954 49.3697C171.922 47.4947 173.245 46.052 174.912 45.0363C176.579 44.0259 178.433 43.5155 180.474 43.5155C182.277 43.5155 183.849 43.8801 185.183 44.5988C186.527 45.3228 187.605 46.2343 188.412 47.328V43.9113H194.537V67.9322H188.412V64.4113C187.631 65.552 186.558 66.4895 185.183 67.2238C183.808 67.9582 182.224 68.328 180.433 68.328C178.417 68.328 176.579 67.8072 174.912 66.7655C173.245 65.7238 171.922 64.2603 170.954 62.3697C169.995 60.4686 169.516 58.2863 169.516 55.828ZM188.412 55.9113C188.412 54.4426 188.12 53.177 187.537 52.1197C186.964 51.0676 186.188 50.2603 185.204 49.703C184.23 49.1353 183.172 48.8488 182.037 48.8488C180.912 48.8488 179.87 49.1301 178.912 49.6822C177.964 50.2238 177.193 51.0259 176.599 52.078C176 53.1353 175.704 54.3853 175.704 55.828C175.704 57.2759 176 58.5363 176.599 59.6197C177.193 60.703 177.974 61.5363 178.933 62.1197C179.902 62.703 180.938 62.9947 182.037 62.9947C183.172 62.9947 184.23 62.7134 185.204 62.1405C186.188 61.5728 186.964 60.7603 187.537 59.703C188.12 58.6509 188.412 57.3853 188.412 55.9113Z" fill="#424567"/>
<path d="M206.544 47.6405C207.32 46.3645 208.336 45.3645 209.586 44.6405C210.846 43.9218 212.294 43.5572 213.919 43.5572V49.9322H212.315C210.409 49.9322 208.971 50.3853 208.002 51.2864C207.028 52.177 206.544 53.7343 206.544 55.953V67.9322H200.482V43.9114H206.544V47.6405Z" fill="#424567"/>
<path d="M240.335 55.3905C240.335 56.2655 240.278 57.052 240.169 57.7447H222.585C222.736 59.4843 223.346 60.8436 224.419 61.828C225.486 62.802 226.799 63.2863 228.356 63.2863C230.616 63.2863 232.221 62.3228 233.169 60.3905H239.731C239.033 62.6978 237.7 64.5988 235.731 66.0988C233.773 67.5884 231.361 68.328 228.502 68.328C226.179 68.328 224.106 67.8176 222.273 66.7863C220.439 65.7603 219.007 64.3072 217.981 62.4322C216.95 60.5468 216.439 58.3697 216.439 55.9113C216.439 53.427 216.939 51.2447 217.939 49.3697C218.95 47.4947 220.366 46.052 222.189 45.0363C224.023 44.0259 226.127 43.5155 228.502 43.5155C230.778 43.5155 232.82 44.0103 234.627 44.9947C236.429 45.9686 237.835 47.3645 238.835 49.1822C239.835 50.9895 240.335 53.0572 240.335 55.3905ZM234.044 53.6613C234.012 52.1093 233.45 50.8593 232.356 49.9113C231.257 48.9686 229.908 48.4947 228.314 48.4947C226.814 48.4947 225.549 48.953 224.523 49.8697C223.491 50.7759 222.861 52.0363 222.627 53.6613H234.044Z" fill="#424567"/>
<path d="M243.289 52.7447C243.289 49.7759 243.956 47.1093 245.289 44.7447C246.633 42.3853 248.477 40.552 250.81 39.2447C253.144 37.927 255.753 37.2655 258.644 37.2655C262.019 37.2655 264.977 38.1353 267.519 39.8697C270.071 41.6093 271.857 44.0103 272.873 47.078H265.894C265.196 45.6197 264.216 44.5311 262.956 43.8072C261.69 43.0884 260.237 42.7238 258.602 42.7238C256.836 42.7238 255.269 43.1405 253.894 43.9738C252.519 44.7968 251.446 45.9634 250.685 47.4738C249.92 48.9738 249.539 50.7343 249.539 52.7447C249.539 54.7447 249.92 56.5103 250.685 58.0363C251.446 59.552 252.519 60.7186 253.894 61.5363C255.269 62.3593 256.836 62.7655 258.602 62.7655C260.237 62.7655 261.69 62.4009 262.956 61.6613C264.216 60.927 265.196 59.8384 265.894 58.3905H272.873C271.857 61.4895 270.086 63.9009 267.56 65.6197C265.029 67.328 262.06 68.1822 258.644 68.1822C255.753 68.1822 253.144 67.5311 250.81 66.2238C248.477 64.9061 246.633 63.078 245.289 60.7447C243.956 58.4009 243.289 55.7343 243.289 52.7447Z" fill="#24AEE7"/>
<path d="M276.512 55.828C276.512 53.4009 276.991 51.2447 277.949 49.3697C278.918 47.4947 280.241 46.052 281.908 45.0363C283.574 44.0259 285.429 43.5155 287.47 43.5155C289.272 43.5155 290.845 43.8801 292.179 44.5988C293.522 45.3228 294.601 46.2343 295.408 47.328V43.9113H301.533V67.9322H295.408V64.4113C294.627 65.552 293.554 66.4895 292.179 67.2238C290.804 67.9582 289.22 68.328 287.429 68.328C285.413 68.328 283.574 67.8072 281.908 66.7655C280.241 65.7238 278.918 64.2603 277.949 62.3697C276.991 60.4686 276.512 58.2863 276.512 55.828ZM295.408 55.9113C295.408 54.4426 295.116 53.177 294.533 52.1197C293.96 51.0676 293.184 50.2603 292.199 49.703C291.226 49.1353 290.168 48.8488 289.033 48.8488C287.908 48.8488 286.866 49.1301 285.908 49.6822C284.96 50.2238 284.189 51.0259 283.595 52.078C282.996 53.1353 282.699 54.3853 282.699 55.828C282.699 57.2759 282.996 58.5363 283.595 59.6197C284.189 60.703 284.97 61.5363 285.929 62.1197C286.897 62.703 287.934 62.9947 289.033 62.9947C290.168 62.9947 291.226 62.7134 292.199 62.1405C293.184 61.5728 293.96 60.7603 294.533 59.703C295.116 58.6509 295.408 57.3853 295.408 55.9113Z" fill="#24AEE7"/>
<path d="M313.54 47.3697C314.316 46.2759 315.394 45.3593 316.769 44.6197C318.144 43.8853 319.712 43.5155 321.477 43.5155C323.53 43.5155 325.384 44.0259 327.04 45.0363C328.707 46.052 330.024 47.4895 330.998 49.3488C331.967 51.2134 332.457 53.3697 332.457 55.828C332.457 58.2863 331.967 60.4686 330.998 62.3697C330.024 64.2603 328.707 65.7238 327.04 66.7655C325.384 67.8072 323.53 68.328 321.477 68.328C319.712 68.328 318.155 67.9634 316.811 67.2447C315.477 66.5259 314.384 65.6145 313.54 64.5155V79.3905H307.477V43.9113H313.54V47.3697ZM326.248 55.828C326.248 54.3853 325.946 53.1353 325.352 52.078C324.769 51.0259 323.988 50.2238 323.019 49.6822C322.045 49.1301 320.998 48.8488 319.873 48.8488C318.774 48.8488 317.738 49.1353 316.769 49.703C315.811 50.2603 315.03 51.0728 314.436 52.1405C313.837 53.2134 313.54 54.4686 313.54 55.9113C313.54 57.3593 313.837 58.6145 314.436 59.6822C315.03 60.7551 315.811 61.5728 316.769 62.1405C317.738 62.7134 318.774 62.9947 319.873 62.9947C320.998 62.9947 322.045 62.703 323.019 62.1197C323.988 61.5363 324.769 60.7134 325.352 59.6405C325.946 58.5728 326.248 57.302 326.248 55.828Z" fill="#24AEE7"/>
<path d="M335.318 55.828C335.318 53.4009 335.797 51.2447 336.755 49.3697C337.724 47.4947 339.047 46.052 340.714 45.0363C342.38 44.0259 344.235 43.5155 346.276 43.5155C348.078 43.5155 349.651 43.8801 350.985 44.5988C352.328 45.3228 353.407 46.2343 354.214 47.328V43.9113H360.339V67.9322H354.214V64.4113C353.433 65.552 352.36 66.4895 350.985 67.2238C349.61 67.9582 348.026 68.328 346.235 68.328C344.219 68.328 342.38 67.8072 340.714 66.7655C339.047 65.7238 337.724 64.2603 336.755 62.3697C335.797 60.4686 335.318 58.2863 335.318 55.828ZM354.214 55.9113C354.214 54.4426 353.922 53.177 353.339 52.1197C352.766 51.0676 351.99 50.2603 351.005 49.703C350.032 49.1353 348.974 48.8488 347.839 48.8488C346.714 48.8488 345.672 49.1301 344.714 49.6822C343.766 50.2238 342.995 51.0259 342.401 52.078C341.802 53.1353 341.505 54.3853 341.505 55.828C341.505 57.2759 341.802 58.5363 342.401 59.6197C342.995 60.703 343.776 61.5363 344.735 62.1197C345.703 62.703 346.74 62.9947 347.839 62.9947C348.974 62.9947 350.032 62.7134 351.005 62.1405C351.99 61.5728 352.766 60.7603 353.339 59.703C353.922 58.6509 354.214 57.3853 354.214 55.9113Z" fill="#24AEE7"/>
<path d="M364.721 55.9113C364.721 53.427 365.221 51.2551 366.221 49.3905C367.231 47.5311 368.638 46.0884 370.429 45.0572C372.231 44.0311 374.289 43.5155 376.596 43.5155C379.58 43.5155 382.044 44.2603 383.992 45.7447C385.95 47.2343 387.263 49.3228 387.929 52.0155H381.367C381.018 50.9738 380.434 50.1613 379.617 49.578C378.794 48.9843 377.773 48.6822 376.554 48.6822C374.815 48.6822 373.44 49.3176 372.429 50.578C371.414 51.828 370.908 53.6093 370.908 55.9113C370.908 58.203 371.414 59.9843 372.429 61.2447C373.44 62.4947 374.815 63.1197 376.554 63.1197C379.013 63.1197 380.617 62.0259 381.367 59.828H387.929C387.263 62.427 385.94 64.4947 383.971 66.0363C382.013 67.5676 379.554 68.328 376.596 68.328C374.289 68.328 372.231 67.8176 370.429 66.7863C368.638 65.7603 367.231 64.3176 366.221 62.453C365.221 60.578 364.721 58.4009 364.721 55.9113Z" fill="#24AEE7"/>
<path d="M395.453 41.0364C394.38 41.0364 393.495 40.6978 392.786 40.0155C392.078 39.3384 391.724 38.4895 391.724 37.4739C391.724 36.4739 392.078 35.6353 392.786 34.953C393.495 34.2759 394.38 33.9322 395.453 33.9322C396.536 33.9322 397.432 34.2759 398.141 34.953C398.849 35.6353 399.203 36.4739 399.203 37.4739C399.203 38.4895 398.849 39.3384 398.141 40.0155C397.432 40.6978 396.536 41.0364 395.453 41.0364ZM398.453 43.9114V67.9322H392.391V43.9114H398.453Z" fill="#24AEE7"/>
<path d="M411.509 48.8905V60.5155C411.509 61.3228 411.702 61.9061 412.092 62.2655C412.478 62.6301 413.139 62.8072 414.072 62.8072H416.884V67.9322H413.072C407.947 67.9322 405.384 65.4478 405.384 60.4738V48.8905H402.53V43.9113H405.384V37.953H411.509V43.9113H416.884V48.8905H411.509Z" fill="#24AEE7"/>
<path d="M444.252 43.9114L429.377 79.2864H422.919L428.127 67.328L418.481 43.9114H425.294L431.502 60.6822L437.794 43.9114H444.252Z" fill="#24AEE7"/>
<path d="M119.461 56.5323L119.443 55.7103L119.437 55.4907L119.426 55.3966L119.414 55.2146L119.379 54.8443C119.332 54.3486 119.296 53.8654 119.243 53.3571C119.067 52.2276 118.919 51.0605 118.643 50.0251L118.46 49.2344C118.431 49.1026 118.401 48.9709 118.366 48.8391L118.248 48.45C118.095 47.9292 117.924 47.4209 117.76 46.9063C117.024 44.8795 116.135 42.9405 115.022 41.1584C114.751 40.7065 114.445 40.2861 114.156 39.8469C114.009 39.6335 113.874 39.4139 113.709 39.2131L113.232 38.6044L112.743 38.002L112.508 37.7008L112.249 37.4184C111.901 37.0419 111.56 36.6591 111.207 36.2951C110.847 35.9375 110.471 35.5986 110.1 35.2598C109.74 34.9084 109.346 34.5946 108.957 34.2871C108.186 33.6471 107.356 33.1137 106.538 32.5677C104.86 31.5637 103.093 30.7542 101.292 30.202C102.822 31.3755 104.247 32.6179 105.543 33.9671C105.849 34.3248 106.167 34.6699 106.473 35.015C106.791 35.3539 107.062 35.7429 107.35 36.1006L107.78 36.6466C107.927 36.8223 108.045 37.0293 108.18 37.2176C108.439 37.6004 108.71 37.9706 108.957 38.3597C109.947 39.9159 110.759 41.56 111.46 43.2291L111.931 44.5093C111.966 44.6159 112.007 44.7163 112.043 44.823L112.143 45.1493L112.337 45.8019L112.531 46.442C112.596 46.6616 112.637 46.8812 112.69 47.1009C112.79 47.5401 112.902 47.9731 112.985 48.4124C113.314 50.1631 113.491 51.9892 113.509 53.6019L113.479 55.0765L113.473 55.4468L113.467 55.635V55.7229C113.467 55.8358 113.467 55.5974 113.467 55.6287L113.461 55.6538V55.6915L113.403 56.3504C113.385 56.57 113.379 56.7834 113.35 57.003L113.267 57.6556C113.22 58.0886 113.138 58.5153 113.061 58.942C112.92 59.8017 112.72 60.6425 112.49 61.4709C112.437 61.6779 112.378 61.885 112.308 62.0921L112.119 62.7008C111.99 63.1087 111.831 63.5103 111.689 63.9119C111.083 65.5057 110.317 67.018 109.428 68.4425C108.539 69.8607 107.515 71.1784 106.385 72.3833C105.254 73.5818 104.024 74.6737 102.693 75.6024C101.368 76.5374 99.9552 77.328 98.4832 77.9681C97.0113 78.6019 95.4805 79.0788 93.9144 79.3863C93.5258 79.4804 93.1254 79.5243 92.7369 79.5871L92.4366 79.6373L92.1658 79.6624L91.6182 79.7251C91.5181 79.7314 91.4475 79.7502 91.3297 79.7565L90.9823 79.769L90.2876 79.8067L90.111 79.813L90.0697 79.8192H89.1395C88.3388 79.8004 87.538 79.7628 86.7432 79.6498L86.1427 79.5745L85.548 79.4804C85.1476 79.4176 84.7532 79.3172 84.3587 79.2357C82.7808 78.878 81.2382 78.332 79.7427 77.6418C78.2473 76.9453 76.8166 76.073 75.4565 75.069L73.8904 73.9144L72.5186 74.6235L71.7767 75.0062L71.0231 75.3702L70.2636 75.7153L69.4982 76.0416L68.721 76.3491L67.9321 76.6378C67.4081 76.8323 66.8782 77.008 66.3424 77.1712C65.8066 77.3343 65.2649 77.4849 64.7174 77.6167C64.1757 77.7485 63.6282 77.8865 63.0747 77.9995L62.2446 78.1563L61.4085 78.2944L60.5842 78.4136L60.1427 78.4701L59.8071 78.5078L59.7482 78.514L59.7246 78.5203H59.7011C59.707 78.5203 59.6716 78.5203 59.7187 78.5203L58.865 78.6019L58.0113 78.6646C57.4402 78.696 56.8691 78.7211 56.2921 78.7337C55.7151 78.7462 55.1381 78.7399 54.5611 78.7211L53.6898 78.6835C53.4013 78.6709 53.1128 78.6458 52.8184 78.6333C52.2355 78.5831 51.6585 78.5203 51.0697 78.4576L50.1984 78.3446L49.3211 78.2065L48.4438 78.0497L47.5607 77.8802C46.9837 77.7547 46.389 77.623 45.8003 77.4786L46.5715 77.9869L47.3664 78.4576C47.9022 78.7713 48.4438 79.0537 48.9973 79.3298C49.5507 79.6059 50.1159 79.8569 50.687 80.0954C51.2581 80.3401 51.8351 80.5534 52.4239 80.7605C53.0068 80.955 53.6014 81.1558 54.202 81.319C54.7966 81.4821 55.4031 81.6328 56.0095 81.7708L56.928 81.9591L57.8523 82.1159L58.7826 82.2477L59.7187 82.3544L60.6313 82.436L61.5969 82.4799L62.5389 82.505H63.4869C64.1168 82.4924 64.7527 82.4673 65.3886 82.4171C66.0186 82.3669 66.6485 82.2979 67.2844 82.2163C67.9144 82.1348 68.5444 82.0344 69.1744 81.9151C69.8043 81.7959 70.4284 81.6453 71.0525 81.4947L71.9828 81.2437L72.913 80.9676L72.9837 80.9425C74.1965 81.9779 75.4918 82.9191 76.8637 83.7286C78.683 84.8017 80.62 85.6802 82.6336 86.3077C84.6472 86.9352 86.7314 87.3243 88.8333 87.4749L90.0167 87.5313H91.1648L91.5122 87.5251C91.63 87.5251 91.7831 87.5125 91.9185 87.5062L92.7604 87.456L93.1784 87.4309L93.5729 87.387C94.0969 87.318 94.6209 87.2678 95.1449 87.1674C97.235 86.8223 99.2898 86.2261 101.268 85.3978C103.24 84.5695 105.125 83.509 106.879 82.2477C108.634 80.9801 110.253 79.5055 111.695 77.8614C113.149 76.2236 114.421 74.4164 115.505 72.4837C116.582 70.5572 117.459 68.5052 118.101 66.378C118.248 65.8383 118.413 65.3112 118.543 64.7716L118.731 63.9558C118.796 63.686 118.855 63.4161 118.902 63.14C119.108 62.0482 119.261 60.95 119.355 59.8456C119.396 59.2934 119.443 58.7412 119.449 58.189L119.473 57.3607C119.479 57.0846 119.467 56.8085 119.461 56.5323Z" fill="#424567"/>
<mask id="mask0_17_2" style="mask-type:luminance" maskUnits="userSpaceOnUse" x="0" y="0" width="95" height="85">
<path d="M0 0H94.2029V84.739H0V0Z" fill="white"/>
</mask>
<g mask="url(#mask0_17_2)">
<path d="M91.6005 22.2703L90.994 20.94L90.3464 19.6285C90.1109 19.2018 89.8754 18.7751 89.6399 18.3484C89.3867 17.9342 89.1394 17.5138 88.8804 17.0996C87.85 15.4367 86.6666 13.8805 85.389 12.3996C84.0996 10.9312 82.6983 9.56324 81.1969 8.30822C79.6897 7.06575 78.0882 5.93623 76.4102 4.93849C74.7264 3.9533 72.9659 3.09988 71.1467 2.39707C69.3215 1.68799 67.4433 1.14833 65.5298 0.752997C63.6163 0.351391 61.6734 0.125487 59.7187 0.0501859L58.2997 0.0250854C57.8111 0.0250854 57.2929 0.0439116 56.7866 0.056461C56.2803 0.0752867 55.8034 0.119212 55.3088 0.150587C54.8201 0.188239 54.3314 0.257264 53.8428 0.307465C51.888 0.564744 49.9451 0.972627 48.0434 1.53738C46.1358 2.10214 44.2753 2.85516 42.4736 3.7274C40.672 4.61219 38.9293 5.63503 37.2689 6.80219C35.6145 7.97564 34.0366 9.27459 32.5706 10.7053C31.0986 12.1298 29.7268 13.6797 28.4786 15.3363C26.4238 18.0409 24.6928 21.0278 23.3387 24.203C22.2141 24.4541 21.1014 24.7678 20.0063 25.1569C18.2105 25.7907 16.4795 26.619 14.8369 27.6042C13.1942 28.5893 11.6516 29.7565 10.2209 31.0492C8.79022 32.3481 7.48315 33.7977 6.31739 35.3602C5.15163 36.9227 4.1154 38.5919 3.2558 40.3614C2.3962 42.131 1.70145 43.9822 1.17745 45.8898C0.912502 46.8373 0.688769 47.7974 0.518027 48.7701C0.435599 49.2595 0.347285 49.7427 0.294295 50.2322C0.235419 50.7216 0.164766 51.2111 0.135328 51.7005C0.100001 52.1963 0.0528999 52.6857 0.0470125 53.1752C0.0293491 53.6647 0.00579802 54.1541 0.0175741 54.6436L0.0234618 55.384L0.0293495 55.566V55.7292L0.0352372 55.817L0.0587879 56.1433L0.094114 56.8022L0.117665 57.1348L0.152991 57.5176L0.235418 58.2831C0.264856 58.5341 0.288407 58.7977 0.329621 59.0299C0.406161 59.513 0.476813 59.9962 0.565129 60.4731L0.8654 61.8976L1.23044 63.3032C1.75444 65.1669 2.46685 66.9616 3.31468 68.6559C4.16839 70.3564 5.1693 71.9628 6.30562 73.4312C7.44783 74.8996 8.69602 76.2613 10.0678 77.4536C11.4397 78.6458 12.8939 79.7063 14.4424 80.5848C15.9791 81.4633 17.5923 82.1787 19.2409 82.7058C20.8894 83.2392 22.5792 83.5843 24.2689 83.7475C25.9587 83.9106 27.6485 83.8918 29.3029 83.6722C27.6485 83.4526 26.0294 83.1011 24.475 82.6054C22.9089 82.116 21.4134 81.4696 19.9827 80.7041C18.5638 79.9322 17.2155 79.0412 15.9614 78.0309C14.7191 77.0143 13.5534 75.9036 12.5112 74.68C11.4691 73.4626 10.5271 72.1699 9.71459 70.7894C8.90797 69.4089 8.21323 67.9656 7.6539 66.4784C7.09457 64.9912 6.67654 63.4538 6.37627 61.8976L6.18198 60.7304L6.04067 59.557C6.00535 59.1616 5.9818 58.7663 5.95236 58.3773C5.93469 58.1764 5.94058 57.9945 5.93469 57.8125L5.92292 57.254L5.91114 56.9779L5.91703 56.6453L5.92292 55.9864L5.92881 55.6539V55.5535C5.92881 55.4719 5.92881 55.635 5.92881 55.6099L5.93469 55.5723L5.94058 55.428L5.9818 54.8444C5.99357 54.449 6.04656 54.06 6.08777 53.6709C6.11721 53.2819 6.18786 52.8991 6.24674 52.5163C6.29384 52.1273 6.38216 51.7507 6.45281 51.368C6.51757 50.9852 6.62355 50.6149 6.71187 50.2384C6.8885 49.4917 7.10634 48.7512 7.35363 48.0233C7.84819 46.5738 8.4664 45.1744 9.20824 43.8567C9.93832 42.5326 10.7803 41.2839 11.7223 40.1293C12.6643 38.9746 13.7123 37.9267 14.8251 36.9729C15.9438 36.0253 17.139 35.197 18.393 34.4754C19.6471 33.76 20.9601 33.1764 22.3142 32.7184C23.6625 32.2603 25.0579 31.9465 26.465 31.752L28.6729 31.4633L29.4913 29.242C30.086 27.6418 30.7925 26.0856 31.5991 24.5858C32.4057 23.0924 33.3183 21.6554 34.3192 20.2999C35.3201 18.9445 36.4152 17.6581 37.5869 16.4596C38.7703 15.2736 40.0185 14.1629 41.3491 13.1589C42.6738 12.1549 44.0633 11.2387 45.5176 10.4543C46.9718 9.65737 48.485 8.9922 50.0275 8.4149C51.5819 7.85014 53.1716 7.39833 54.7907 7.08457C55.1969 7.01555 55.6032 6.9277 56.0094 6.87122C56.4157 6.81475 56.8337 6.73944 57.2341 6.69552L58.4234 6.56374L59.7187 6.48216C61.379 6.41314 63.0393 6.47589 64.7055 6.64532C66.3659 6.81475 68.0144 7.1285 69.6512 7.56148C71.2821 7.98819 72.8953 8.55295 74.4614 9.24321C76.0393 9.92092 77.5701 10.7241 79.0479 11.6528C80.5316 12.5753 81.9623 13.617 83.3165 14.7716C84.6883 15.9136 85.9718 17.1812 87.1906 18.5366C87.4909 18.8755 87.7852 19.2269 88.0855 19.572L88.9451 20.6451L89.7812 21.7558L90.576 22.8978C91.6299 24.4478 92.566 26.073 93.4374 27.7861C92.99 25.9099 92.3541 24.0587 91.6005 22.2703Z" fill="#24AEE6"/>
</g>
<mask id="mask1_17_2" style="mask-type:luminance" maskUnits="userSpaceOnUse" x="26" y="34" width="68" height="44">
<path d="M26.0765 34.5131H93.9026V77.8866H26.0765V34.5131Z" fill="white"/>
</mask>
<g mask="url(#mask1_17_2)">
<path d="M91.206 39.9849C90.629 39.9849 90.0815 40.2297 89.6576 40.6689C89.2454 41.1082 89.0158 41.6918 89.0158 42.3193V54.8507H87.5616C87.7676 54.493 87.8972 54.0725 87.8972 53.627C87.8972 52.9932 87.6617 52.3971 87.2436 51.9453C87.1082 51.8072 86.961 51.6943 86.8021 51.5939C87.4674 50.9789 87.8972 50.0753 87.8972 49.0713V48.9081C87.8972 47.0758 86.4959 45.5823 84.7708 45.5823H66.7604C65.0353 45.5823 63.634 47.0758 63.634 48.9081V49.0713C63.634 49.9059 63.9284 50.6714 64.4112 51.255H41.2667C42.5326 50.4393 43.0213 48.7136 42.3442 47.2892L38.9058 40.0414C38.1463 38.4224 36.2916 37.7636 34.7667 38.5668L33.6893 39.1378L32.2821 36.1634C31.976 35.5171 31.4578 35.0339 30.8161 34.808C30.1684 34.5821 29.4855 34.6386 28.879 34.9649C28.0194 35.4292 27.4837 36.3579 27.4837 37.3808C27.4837 37.7949 27.572 38.2028 27.7545 38.5856L28.4198 39.9975C28.3668 39.9975 28.3138 39.9849 28.2608 39.9849C27.6897 39.9849 27.1422 40.2297 26.7183 40.6689C26.3061 41.1082 26.0765 41.6918 26.0765 42.3193V56.2186C26.0765 58.0384 27.466 59.5131 29.1675 59.5131H33.9366V60.8748H33.024C31.0987 60.8748 29.5326 62.5377 29.5326 64.5833V70.4129C28.2962 71.1596 27.5072 72.559 27.5072 74.0964C27.5072 76.4307 29.2971 78.3384 31.4873 78.3384C33.6834 78.3384 35.4674 76.4307 35.4674 74.0964C35.4674 72.559 34.6843 71.1596 33.4479 70.4129V69.2018H85.5303V70.4129C84.288 71.1534 83.4991 72.5527 83.4991 74.0964C83.4991 76.4307 85.2889 78.3384 87.485 78.3384C89.6752 78.3384 91.4651 76.4307 91.4651 74.0964C91.4651 72.559 90.6703 71.1534 89.4397 70.4129V64.5833C89.4397 62.5377 87.8736 60.8748 85.9483 60.8748H85.0357V59.5131H90.3052C92.0068 59.5131 93.3904 58.0321 93.3904 56.2186V42.313C93.3904 41.0329 92.413 39.9849 91.206 39.9849ZM30.4511 54.8507V44.3085L35.432 54.8507H30.4511ZM64.7056 49.0713V48.9081C64.7056 47.7033 65.6241 46.7244 66.7604 46.7244H84.7708C85.7423 46.7244 86.5607 47.4523 86.7726 48.4187H67.3256C67.0312 48.4187 66.7898 48.676 66.7898 48.9897C66.7898 49.3035 67.0312 49.5607 67.3256 49.5607H86.7726C86.5607 50.5271 85.7482 51.255 84.7708 51.255H66.7604C65.6241 51.255 64.7056 50.2761 64.7056 49.0713ZM29.3559 35.9814C29.7092 35.7932 30.1096 35.7618 30.4805 35.8936C30.8514 36.0254 31.1517 36.3015 31.3283 36.6717L38.6055 52.0833C38.6938 52.2716 38.8822 52.3971 39.0824 52.3971H85.6716C85.9837 52.3971 86.2722 52.5226 86.4841 52.7548C86.7078 52.987 86.8256 53.2882 86.8256 53.627C86.8256 54.2984 86.3075 54.8507 85.6716 54.8507H36.6272L28.7083 38.0773C28.6023 37.8514 28.5493 37.6192 28.5493 37.3808C28.5493 36.7846 28.8614 36.2513 29.3559 35.9814ZM32.3763 74.0964C32.3763 74.6172 31.976 75.0377 31.4873 75.0377C30.9986 75.0377 30.6041 74.6172 30.6041 74.0964C30.6041 73.5756 30.9986 73.1489 31.4873 73.1489C31.976 73.1489 32.3763 73.5756 32.3763 74.0964ZM88.3682 74.0964C88.3682 74.6172 87.9737 75.0377 87.485 75.0377C86.9963 75.0377 86.596 74.6172 86.596 74.0964C86.596 73.5756 86.9963 73.1489 87.485 73.1489C87.9737 73.1489 88.3682 73.5756 88.3682 74.0964ZM88.3682 64.5833V69.9611C87.7912 69.823 87.1789 69.823 86.596 69.9611V68.6308C86.596 68.317 86.3605 68.066 86.0602 68.066H32.9121C32.6177 68.066 32.3763 68.317 32.3763 68.6308V69.9611C31.7934 69.823 31.1811 69.823 30.6041 69.9611V64.5833C30.6041 63.1652 31.6875 62.0105 33.024 62.0105H85.9483C87.2848 62.0105 88.3682 63.1652 88.3682 64.5833ZM83.9701 60.8748H35.0081V59.5131H83.9701V60.8748Z" fill="#424566"/>
</g>
<mask id="mask2_17_2" style="mask-type:luminance" maskUnits="userSpaceOnUse" x="47" y="9" width="25" height="35">
<path d="M47.4783 9.78918H71.5942V43.5241H47.4783V9.78918Z" fill="white"/>
</mask>
<g mask="url(#mask2_17_2)">
<path fill-rule="evenodd" clip-rule="evenodd" d="M55.8388 13.4225C55.9919 13.4225 56.1391 13.4225 56.2921 13.435C56.0095 13.046 55.8388 12.5628 55.8388 12.0357C55.8388 10.7995 56.7808 9.78918 57.9466 9.78918C59.1123 9.78918 60.0603 10.7995 60.0603 12.0357C60.0603 12.9016 59.601 13.6546 58.9298 14.0312C61.7441 15.1858 63.8519 17.8652 64.3465 21.122C62.7333 17.6017 59.3361 15.1732 55.409 15.1732C52.5005 15.1732 49.8805 16.5035 48.0612 18.6245C49.4565 15.5497 52.418 13.4225 55.8388 13.4225ZM63.6282 40.1356C63.4751 40.1356 63.322 40.1356 63.1689 40.123C63.4574 40.5058 63.6282 40.989 63.6282 41.5161C63.6282 42.7586 62.6803 43.7626 61.5145 43.7626C60.3546 43.7626 59.4067 42.7586 59.4067 41.5161C59.4067 40.6564 59.8601 39.9034 60.5313 39.5269C57.717 38.3723 55.6151 35.6928 55.1146 32.436C56.7337 35.9626 60.125 38.3848 64.0521 38.3848C66.9606 38.3848 69.5806 37.0545 71.3999 34.9335C70.0104 38.0146 67.0548 40.1356 63.6282 40.1356Z" fill="#424567"/>
</g>
<path fill-rule="evenodd" clip-rule="evenodd" d="M68.6386 16.5035C68.7151 16.6478 68.7858 16.7859 68.8564 16.9302C69.0272 16.4784 69.3333 16.0768 69.7631 15.8133C70.7699 15.192 72.0593 15.5622 72.6422 16.6353C73.2251 17.7083 72.8777 19.0889 71.8709 19.7101C71.1703 20.1431 70.3343 20.0929 69.6925 19.6662C70.1635 22.8414 69.0331 26.117 66.6427 28.2129C68.6916 24.9561 68.9683 20.6074 67.0077 16.9867C65.5476 14.2947 63.1572 12.5502 60.5195 11.929C63.7224 11.678 66.9253 13.3471 68.6386 16.5035ZM50.8225 37.0482C50.7459 36.9101 50.6753 36.7721 50.6046 36.6278C50.4398 37.0858 50.1336 37.4812 49.7038 37.7447C48.6911 38.3597 47.4017 37.9957 46.8189 36.9227C46.236 35.8434 46.5833 34.4691 47.5901 33.8479C48.2908 33.4149 49.1327 33.4651 49.7745 33.8918C49.3035 30.7166 50.428 27.4347 52.8184 25.3451C50.7695 28.6019 50.4987 32.9443 52.4651 36.5713C53.9135 39.257 56.3098 41.0078 58.9416 41.6227C55.7446 41.88 52.5358 40.2108 50.8225 37.0482Z" fill="#6ED0EB"/>
<mask id="mask3_17_2" style="mask-type:luminance" maskUnits="userSpaceOnUse" x="44" y="17" width="31" height="18">
<path d="M44.4637 17.269H74.9737V34.9397H44.4637V17.269Z" fill="white"/>
</mask>
<g mask="url(#mask3_17_2)">
<path fill-rule="evenodd" clip-rule="evenodd" d="M72.5303 29.8632C72.4597 30.0012 72.3773 30.1393 72.2948 30.2711C72.7482 30.2083 73.2251 30.2899 73.6608 30.5534C74.6617 31.1747 75.009 32.5489 74.4262 33.622C73.8492 34.7013 72.5539 35.0715 71.5412 34.4503C70.8465 34.0173 70.4579 33.2204 70.4932 32.4109C68.144 34.4377 64.9176 35.0401 62.0267 33.873C65.6888 34.1428 69.3628 32.2163 71.3234 28.5893C72.7776 25.9036 73.0072 22.8225 72.1888 20.0803C73.9964 22.9104 74.2495 26.7005 72.5303 29.8632ZM46.9307 23.6948C47.0013 23.5504 47.0897 23.4187 47.1662 23.2806C46.7129 23.3496 46.2359 23.2681 45.812 23.0045C44.7994 22.3833 44.452 21.009 45.0349 19.9297C45.6177 18.8567 46.9071 18.4927 47.9198 19.1077C48.6205 19.5406 49.0032 20.3313 48.9678 21.1408C51.317 19.1265 54.5435 18.5178 57.4461 19.685C53.7722 19.4214 50.1042 21.3353 48.1377 24.9623C46.6834 27.6481 46.4538 30.7354 47.2722 33.4714C45.4705 30.6476 45.2233 26.8511 46.9307 23.6948Z" fill="#24AEE6"/>
</g>
<path fill-rule="evenodd" clip-rule="evenodd" d="M64.5054 28.6897V24.8619H61.5262V21.693H57.9407V24.8619H54.9556V28.6897H57.9407V31.8712H61.5262V28.6897H64.5054Z" fill="#424567"/>
</svg>
