<svg xmlns="http://www.w3.org/2000/svg" width="90" height="24" viewBox="0 0 90 24" fill="none">
<path d="M7.95342 21.1394C4.89585 21.1304 2.2547 19.4579 0.987289 16.2894C-0.280125 13.1209 0.108917 9.16309 1.74362 5.61499C4.80119 5.62404 7.44234 7.29643 8.70975 10.465C9.97717 13.6335 9.58813 17.5913 7.95342 21.1394Z" fill="white"/>
<path d="M7.95342 21.1394C4.89585 21.1304 2.2547 19.4579 0.987289 16.2894C-0.280125 13.1209 0.108917 9.16309 1.74362 5.61499C4.80119 5.62404 7.44234 7.29643 8.70975 10.465C9.97717 13.6335 9.58813 17.5913 7.95342 21.1394Z" fill="url(#paint0_radial_15_37)"/>
<g style="mix-blend-mode:hard-light">
<path d="M7.95342 21.1394C4.89585 21.1304 2.2547 19.4579 0.987289 16.2894C-0.280125 13.1209 0.108917 9.16309 1.74362 5.61499C4.80119 5.62404 7.44234 7.29643 8.70975 10.465C9.97717 13.6335 9.58813 17.5913 7.95342 21.1394Z" fill="black" fill-opacity="0.5"/>
</g>
<path style="mix-blend-mode:hard-light" d="M7.95342 21.1394C4.89585 21.1304 2.2547 19.4579 0.987289 16.2894C-0.280125 13.1209 0.108917 9.16309 1.74362 5.61499C4.80119 5.62404 7.44234 7.29643 8.70975 10.465C9.97717 13.6335 9.58813 17.5913 7.95342 21.1394Z" fill="url(#paint1_linear_15_37)" fill-opacity="0.5"/>
<path d="M7.9354 21.1112C4.89702 21.0957 2.27411 19.4306 1.01347 16.279C-0.248373 13.1244 0.135614 9.18222 1.76165 5.64331C4.80004 5.65886 7.42295 7.32389 8.68359 10.4755C9.94543 13.63 9.56144 17.5723 7.9354 21.1112Z" stroke="url(#paint2_linear_15_37)" stroke-opacity="0.05" stroke-width="0.056338"/>
<path d="M7.31038 21.2574C11.3543 20.2215 14.8836 17.3754 16.6285 13.2361C18.3735 9.09674 17.9448 4.58752 15.8598 0.976318C11.8159 2.01217 8.2866 4.85829 6.54167 8.99765C4.79674 13.137 5.2254 17.6462 7.31038 21.2574Z" fill="white"/>
<path d="M7.31038 21.2574C11.3543 20.2215 14.8836 17.3754 16.6285 13.2361C18.3735 9.09674 17.9448 4.58752 15.8598 0.976318C11.8159 2.01217 8.2866 4.85829 6.54167 8.99765C4.79674 13.137 5.2254 17.6462 7.31038 21.2574Z" fill="url(#paint3_radial_15_37)"/>
<path d="M16.6025 13.2251C14.8642 17.349 11.3512 20.1866 7.32412 21.2248C5.25258 17.624 4.82927 13.1324 6.56765 9.00857C8.30604 4.88474 11.819 2.04708 15.8461 1.00891C17.9176 4.60969 18.3409 9.10133 16.6025 13.2251Z" stroke="url(#paint4_linear_15_37)" stroke-opacity="0.05" stroke-width="0.056338"/>
<path d="M7.23367 21.2069C9.78905 23.2373 13.2102 23.9506 16.5772 22.8141C19.9441 21.6775 22.5058 18.9445 23.7304 15.6382C21.175 13.6078 17.7538 12.8944 14.3869 14.031C11.0199 15.1676 8.45821 17.9006 7.23367 21.2069Z" fill="white"/>
<path d="M7.23367 21.2069C9.78905 23.2373 13.2102 23.9506 16.5772 22.8141C19.9441 21.6775 22.5058 18.9445 23.7304 15.6382C21.175 13.6078 17.7538 12.8944 14.3869 14.031C11.0199 15.1676 8.45821 17.9006 7.23367 21.2069Z" fill="url(#paint5_radial_15_37)"/>
<g style="mix-blend-mode:hard-light">
<path d="M7.23367 21.2069C9.78905 23.2373 13.2102 23.9506 16.5772 22.8141C19.9441 21.6775 22.5058 18.9445 23.7304 15.6382C21.175 13.6078 17.7538 12.8944 14.3869 14.031C11.0199 15.1676 8.45821 17.9006 7.23367 21.2069Z" fill="black" fill-opacity="0.2"/>
</g>
<path style="mix-blend-mode:hard-light" d="M7.23367 21.2069C9.78905 23.2373 13.2102 23.9506 16.5772 22.8141C19.9441 21.6775 22.5058 18.9445 23.7304 15.6382C21.175 13.6078 17.7538 12.8944 14.3869 14.031C11.0199 15.1676 8.45821 17.9006 7.23367 21.2069Z" fill="url(#paint6_linear_15_37)" fill-opacity="0.5"/>
<path d="M16.5682 22.7873C13.2176 23.9183 9.81362 23.2123 7.26721 21.1974C8.49195 17.9067 11.0444 15.1889 14.3959 14.0576C17.7465 12.9265 21.1504 13.6325 23.6968 15.6475C22.4721 18.9382 19.9196 21.6559 16.5682 22.7873Z" stroke="url(#paint7_linear_15_37)" stroke-opacity="0.05" stroke-width="0.056338"/>
<path d="M34.58 13.704C35.052 13.792 35.44 14.028 35.744 14.412C36.048 14.796 36.2 15.236 36.2 15.732C36.2 16.18 36.088 16.576 35.864 16.92C35.648 17.256 35.332 17.52 34.916 17.712C34.5 17.904 34.008 18 33.44 18H29.828V9.624H33.284C33.852 9.624 34.34 9.716 34.748 9.9C35.164 10.084 35.476 10.34 35.684 10.668C35.9 10.996 36.008 11.368 36.008 11.784C36.008 12.272 35.876 12.68 35.612 13.008C35.356 13.336 35.012 13.568 34.58 13.704ZM31.508 13.08H33.044C33.444 13.08 33.752 12.992 33.968 12.816C34.184 12.632 34.292 12.372 34.292 12.036C34.292 11.7 34.184 11.44 33.968 11.256C33.752 11.072 33.444 10.98 33.044 10.98H31.508V13.08ZM33.2 16.632C33.608 16.632 33.924 16.536 34.148 16.344C34.38 16.152 34.496 15.88 34.496 15.528C34.496 15.168 34.376 14.888 34.136 14.688C33.896 14.48 33.572 14.376 33.164 14.376H31.508V16.632H33.2ZM37.1309 13.8C37.1309 12.976 37.3149 12.24 37.6829 11.592C38.0589 10.936 38.5669 10.428 39.2069 10.068C39.8549 9.7 40.5789 9.516 41.3789 9.516C42.3149 9.516 43.1349 9.756 43.8389 10.236C44.5429 10.716 45.0349 11.38 45.3149 12.228H43.3829C43.1909 11.828 42.9189 11.528 42.5669 11.328C42.2229 11.128 41.8229 11.028 41.3669 11.028C40.8789 11.028 40.4429 11.144 40.0589 11.376C39.6829 11.6 39.3869 11.92 39.1709 12.336C38.9629 12.752 38.8589 13.24 38.8589 13.8C38.8589 14.352 38.9629 14.84 39.1709 15.264C39.3869 15.68 39.6829 16.004 40.0589 16.236C40.4429 16.46 40.8789 16.572 41.3669 16.572C41.8229 16.572 42.2229 16.472 42.5669 16.272C42.9189 16.064 43.1909 15.76 43.3829 15.36H45.3149C45.0349 16.216 44.5429 16.884 43.8389 17.364C43.1429 17.836 42.3229 18.072 41.3789 18.072C40.5789 18.072 39.8549 17.892 39.2069 17.532C38.5669 17.164 38.0589 16.656 37.6829 16.008C37.3149 15.36 37.1309 14.624 37.1309 13.8ZM49.6779 9.624C50.5579 9.624 51.3299 9.796 51.9939 10.14C52.6659 10.484 53.1819 10.976 53.5419 11.616C53.9099 12.248 54.0939 12.984 54.0939 13.824C54.0939 14.664 53.9099 15.4 53.5419 16.032C53.1819 16.656 52.6659 17.14 51.9939 17.484C51.3299 17.828 50.5579 18 49.6779 18H46.7499V9.624H49.6779ZM49.6179 16.572C50.4979 16.572 51.1779 16.332 51.6579 15.852C52.1379 15.372 52.3779 14.696 52.3779 13.824C52.3779 12.952 52.1379 12.272 51.6579 11.784C51.1779 11.288 50.4979 11.04 49.6179 11.04H48.4299V16.572H49.6179ZM60.4874 16.404H57.1514L56.5994 18H54.8354L57.8474 9.612H59.8034L62.8154 18H61.0394L60.4874 16.404ZM60.0314 15.06L58.8194 11.556L57.6074 15.06H60.0314ZM71.9367 16.404H68.6007L68.0487 18H66.2847L69.2967 9.612H71.2527L74.2647 18H72.4887L71.9367 16.404ZM71.4807 15.06L70.2687 11.556L69.0567 15.06H71.4807ZM81.4985 12.216C81.4985 12.664 81.3905 13.084 81.1745 13.476C80.9665 13.868 80.6345 14.184 80.1785 14.424C79.7305 14.664 79.1625 14.784 78.4745 14.784H77.0705V18H75.3905V9.624H78.4745C79.1225 9.624 79.6745 9.736 80.1305 9.96C80.5865 10.184 80.9265 10.492 81.1505 10.884C81.3825 11.276 81.4985 11.72 81.4985 12.216ZM78.4025 13.428C78.8665 13.428 79.2105 13.324 79.4345 13.116C79.6585 12.9 79.7705 12.6 79.7705 12.216C79.7705 11.4 79.3145 10.992 78.4025 10.992H77.0705V13.428H78.4025ZM88.7993 12.216C88.7993 12.664 88.6913 13.084 88.4753 13.476C88.2673 13.868 87.9353 14.184 87.4793 14.424C87.0313 14.664 86.4633 14.784 85.7753 14.784H84.3713V18H82.6913V9.624H85.7753C86.4233 9.624 86.9753 9.736 87.4313 9.96C87.8873 10.184 88.2273 10.492 88.4513 10.884C88.6833 11.276 88.7993 11.72 88.7993 12.216ZM85.7033 13.428C86.1673 13.428 86.5113 13.324 86.7353 13.116C86.9593 12.9 87.0713 12.6 87.0713 12.216C87.0713 11.4 86.6153 10.992 85.7033 10.992H84.3713V13.428H85.7033Z" fill="#004833"/>
<defs>
<radialGradient id="paint0_radial_15_37" cx="0" cy="0" r="1" gradientUnits="userSpaceOnUse" gradientTransform="translate(-3.00504 15.023) rotate(-10.029) scale(17.9572 17.784)">
<stop stop-color="#00B0BB"/>
<stop offset="1" stop-color="#00DB65"/>
</radialGradient>
<linearGradient id="paint1_linear_15_37" x1="7.39035" y1="4.81303" x2="1.62974" y2="18.6894" gradientUnits="userSpaceOnUse">
<stop stop-color="#18E299"/>
<stop offset="1"/>
</linearGradient>
<linearGradient id="paint2_linear_15_37" x1="7.94816" y1="8.01566" x2="1.7612" y2="18.746" gradientUnits="userSpaceOnUse">
<stop/>
<stop offset="1" stop-opacity="0"/>
</linearGradient>
<radialGradient id="paint3_radial_15_37" cx="0" cy="0" r="1" gradientUnits="userSpaceOnUse" gradientTransform="translate(8.11404 20.8822) rotate(-75.7542) scale(21.6246 23.7772)">
<stop stop-color="#00BBBB"/>
<stop offset="0.712616" stop-color="#00DB65"/>
</radialGradient>
<linearGradient id="paint4_linear_15_37" x1="7.60206" y1="5.87092" x2="15.5561" y2="16.3719" gradientUnits="userSpaceOnUse">
<stop/>
<stop offset="1" stop-opacity="0"/>
</linearGradient>
<radialGradient id="paint5_radial_15_37" cx="0" cy="0" r="1" gradientUnits="userSpaceOnUse" gradientTransform="translate(7.84536 21.5181) rotate(-20.3525) scale(18.5603 17.32)">
<stop stop-color="#00B0BB"/>
<stop offset="1" stop-color="#00DB65"/>
</radialGradient>
<linearGradient id="paint6_linear_15_37" x1="16.8078" y1="13.0071" x2="10.0409" y2="22.9937" gradientUnits="userSpaceOnUse">
<stop stop-color="#00B1BC"/>
<stop offset="1"/>
</linearGradient>
<linearGradient id="paint7_linear_15_37" x1="16.8078" y1="13.007" x2="14.1687" y2="23.8409" gradientUnits="userSpaceOnUse">
<stop/>
<stop offset="1" stop-opacity="0"/>
</linearGradient>
</defs>
</svg>